<?xml version="1.0" encoding="UTF-8" standalone="no"?>
<!-- Created with Inkscape (http://www.inkscape.org/) -->

<svg
   width="23.555mm"
   height="23.555mm"
   viewBox="0 0 23.554998 23.555001"
   version="1.1"
   id="svg1"
   xml:space="preserve"
   inkscape:version="1.3.2 (091e20e, 2023-11-25)"
   sodipodi:docname="logo-square.svg"
   inkscape:export-filename="logo.png"
   inkscape:export-xdpi="96"
   inkscape:export-ydpi="96"
   xmlns:inkscape="http://www.inkscape.org/namespaces/inkscape"
   xmlns:sodipodi="http://sodipodi.sourceforge.net/DTD/sodipodi-0.dtd"
   xmlns="http://www.w3.org/2000/svg"
   xmlns:svg="http://www.w3.org/2000/svg"><sodipodi:namedview
     id="namedview1"
     pagecolor="#ffffff"
     bordercolor="#666666"
     borderopacity="1.0"
     inkscape:showpageshadow="2"
     inkscape:pageopacity="0.0"
     inkscape:pagecheckerboard="0"
     inkscape:deskcolor="#d1d1d1"
     inkscape:document-units="mm"
     inkscape:zoom="3.2297777"
     inkscape:cx="167.19417"
     inkscape:cy="91.182746"
     inkscape:window-width="2480"
     inkscape:window-height="1212"
     inkscape:window-x="80"
     inkscape:window-y="200"
     inkscape:window-maximized="0"
     inkscape:current-layer="layer1" /><defs
     id="defs1" /><g
     inkscape:label="Layer 1"
     inkscape:groupmode="layer"
     id="layer1"
     transform="translate(-86.217127,-94.170092)"><rect
       style="opacity:1;fill:#ffffff;fill-opacity:1;stroke:none;stroke-width:0.832895;stroke-linecap:round;stroke-linejoin:round;stroke-opacity:1;paint-order:markers stroke fill"
       id="rect1"
       width="23.554998"
       height="23.555"
       x="86.217125"
       y="94.17009"
       ry="2.5395195"
       inkscape:export-filename="./logo-square.png"
       inkscape:export-xdpi="96"
       inkscape:export-ydpi="96" /><g
       id="g1"
       transform="translate(28.901376,2.3861838)"><path
         style="fill:#bcc4c4"
         d="m 67.672534,115.312 c -2.015693,-0.08 -3.578658,-0.33716 -3.533514,-0.58138 0.116464,-0.63006 7.843561,-0.77356 9.664306,-0.17947 1.334614,0.43547 -2.460831,0.90649 -6.130792,0.76085 z m 1.172325,-1.3451 c 0.100839,-0.007 0.256994,-0.007 0.347011,1.7e-4 0.09002,0.007 0.0075,0.0129 -0.183344,0.0128 -0.190856,-9e-5 -0.264506,-0.006 -0.163667,-0.013 z m -1.788269,-2.42737 c 0.0334,-0.009 0.08805,-0.009 0.121454,0 0.0334,0.009 0.0061,0.0159 -0.06073,0.0159 -0.0668,0 -0.09413,-0.007 -0.06073,-0.0159 z m 1.058788,-0.0353 c 0.04316,-0.008 0.105627,-0.008 0.138804,7e-4 0.03318,0.009 -0.0021,0.0155 -0.07848,0.0151 -0.07634,-3.9e-4 -0.103488,-0.007 -0.06032,-0.0158 z m 1.075733,-0.0347 c 0.04317,-0.008 0.105627,-0.008 0.138805,7e-4 0.03318,0.009 -0.0021,0.0155 -0.07848,0.0151 -0.07634,-3.9e-4 -0.103488,-0.007 -0.06032,-0.0158 z m 1.041033,-0.0347 c 0.04316,-0.008 0.105627,-0.008 0.138804,7e-4 0.03318,0.009 -0.0021,0.0155 -0.07848,0.0151 -0.07634,-3.9e-4 -0.103487,-0.007 -0.06032,-0.0158 z m 0.903993,-0.0339 c 0.02505,-0.01 0.05498,-0.009 0.06651,0.003 0.01153,0.0115 -0.009,0.0197 -0.04555,0.0182 -0.04042,-0.002 -0.04865,-0.01 -0.02096,-0.021 z m -4.627092,-2.21451 c 4e-6,-1.22148 0.0044,-1.71614 0.0097,-1.09925 0.0053,0.61689 0.0053,1.61628 -7e-6,2.22087 -0.0053,0.60458 -0.0097,0.0999 -0.0097,-1.12162 z m 1.467124,1.93612 c 0.04294,-0.008 0.113212,-0.008 0.156155,0 0.04294,0.008 0.0078,0.015 -0.07808,0.015 -0.08589,0 -0.12102,-0.007 -0.07808,-0.015 z m 1.214942,-0.0348 c 0.04317,-0.008 0.105627,-0.008 0.138805,7e-4 0.03318,0.009 -0.0021,0.0155 -0.07848,0.0151 -0.07634,-3.9e-4 -0.103488,-0.007 -0.06032,-0.0158 z m 1.128042,-0.0342 c 0.03376,-0.009 0.08061,-0.008 0.104103,0.001 0.02349,0.01 -0.0041,0.0167 -0.06139,0.016 -0.05726,-7.1e-4 -0.07648,-0.008 -0.04272,-0.0173 z m -2.603243,-0.6245 c 0.0334,-0.009 0.08806,-0.009 0.121454,0 0.0334,0.009 0.0061,0.0159 -0.06073,0.0159 -0.0668,0 -0.09413,-0.007 -0.06073,-0.0159 z m 1.023683,-0.0353 c 0.04294,-0.008 0.113212,-0.008 0.156155,0 0.04294,0.008 0.0078,0.015 -0.07808,0.015 -0.08589,0 -0.12102,-0.007 -0.07808,-0.015 z m 1.110435,-0.0347 c 0.04294,-0.008 0.113212,-0.008 0.156154,0 0.04294,0.008 0.0078,0.015 -0.07808,0.015 -0.08589,0 -0.12102,-0.007 -0.07808,-0.015 z m 1.145136,-0.0347 c 0.04294,-0.008 0.113212,-0.008 0.156154,0 0.04294,0.008 0.0078,0.015 -0.07808,0.015 -0.08588,0 -0.12102,-0.007 -0.07808,-0.015 z m -3.539512,-0.27761 c 0.04294,-0.008 0.113213,-0.008 0.156155,0 0.04294,0.008 0.0078,0.015 -0.07808,0.015 -0.08589,0 -0.12102,-0.007 -0.07808,-0.015 z m 1.231889,-0.0341 c 0.0334,-0.009 0.08805,-0.009 0.121454,0 0.0334,0.009 0.0061,0.0159 -0.06073,0.0159 -0.0668,0 -0.09413,-0.007 -0.06073,-0.0159 z m 1.12819,-0.0353 c 0.04317,-0.008 0.105627,-0.008 0.138804,7e-4 0.03318,0.009 -0.0021,0.0155 -0.07848,0.0151 -0.07634,-3.9e-4 -0.103487,-0.007 -0.06032,-0.0158 z m 1.197443,-0.0342 c 0.03376,-0.009 0.08061,-0.008 0.104104,0.001 0.02349,0.01 -0.0041,0.0167 -0.06139,0.016 -0.05726,-7.1e-4 -0.07648,-0.008 -0.04272,-0.0173 z m -6.766895,-0.13966 c 0.05275,-0.008 0.130825,-0.008 0.173505,4.8e-4 0.04268,0.008 -4.77e-4,0.0148 -0.09591,0.0145 -0.09543,-2.6e-4 -0.130348,-0.007 -0.0776,-0.015 z m 9.213579,-5.5e-4 c 0.08162,-0.007 0.206542,-0.007 0.277609,2.3e-4 0.07107,0.007 0.0043,0.0135 -0.148397,0.0133 -0.152685,-1.3e-4 -0.21083,-0.006 -0.129212,-0.0136 z m -5.466339,-0.48428 c 0.0334,-0.009 0.08805,-0.009 0.121454,0 0.0334,0.009 0.0061,0.0159 -0.06073,0.0159 -0.0668,0 -0.09413,-0.007 -0.06073,-0.0159 z m 1.162891,-0.0353 c 0.04317,-0.008 0.105627,-0.008 0.138805,7e-4 0.03318,0.009 -0.0021,0.0155 -0.07848,0.0151 -0.07634,-3.9e-4 -0.103488,-0.007 -0.06032,-0.0158 z m -4.711077,-0.0449 c -0.04448,-0.0288 -0.04322,-0.0337 0.0087,-0.0342 0.0334,-2.9e-4 0.06073,0.0151 0.06073,0.0342 0,0.0423 -0.0039,0.0423 -0.0694,0 z m 5.89051,0.0102 c 0.04294,-0.008 0.113212,-0.008 0.156155,0 0.04294,0.008 0.0078,0.015 -0.07808,0.015 -0.08589,0 -0.12102,-0.007 -0.07808,-0.015 z m -2.515352,-0.31272 c 0.05275,-0.008 0.130825,-0.008 0.173505,4.7e-4 0.04268,0.008 -4.77e-4,0.0148 -0.09591,0.0145 -0.09543,-2.6e-4 -0.130348,-0.007 -0.0776,-0.015 z m 1.17936,-0.0347 c 0.05248,-0.008 0.13837,-0.008 0.190856,0 0.05248,0.008 0.0095,0.0145 -0.09543,0.0145 -0.104971,0 -0.147914,-0.007 -0.09543,-0.0145 z m 1.301291,-0.0343 c 0.04294,-0.008 0.113212,-0.008 0.156155,0 0.04294,0.008 0.0078,0.015 -0.07808,0.015 -0.08589,0 -0.12102,-0.007 -0.07808,-0.015 z m -3.157395,-0.62468 c 0.04317,-0.008 0.105627,-0.008 0.138804,7e-4 0.03318,0.009 -0.0021,0.0155 -0.07848,0.0151 -0.07634,-3.9e-4 -0.103487,-0.007 -0.06032,-0.0158 z m 8.544739,0.0114 c 0,-0.007 0.02733,-0.0345 0.06073,-0.0607 0.05504,-0.0432 0.05626,-0.0419 0.0131,0.0131 -0.04533,0.0578 -0.07383,0.0762 -0.07383,0.0476 z m -7.1571,-0.0461 c 0.04294,-0.008 0.113212,-0.008 0.156155,0 0.04294,0.008 0.0078,0.015 -0.07808,0.015 -0.08589,0 -0.12102,-0.007 -0.07808,-0.015 z m 1.267067,-0.0351 c 0.05275,-0.008 0.130825,-0.008 0.173505,4.8e-4 0.04268,0.008 -4.77e-4,0.0148 -0.09591,0.0145 -0.09543,-2.6e-4 -0.130348,-0.007 -0.0776,-0.015 z m 1.231816,-0.0343 c 0.04317,-0.008 0.105627,-0.008 0.138805,7e-4 0.03318,0.009 -0.0021,0.0155 -0.07848,0.0151 -0.07634,-3.8e-4 -0.103488,-0.007 -0.06032,-0.0158 z m -4.00838,-0.27699 c 0.0334,-0.009 0.08805,-0.009 0.121454,0 0.0334,0.009 0.0061,0.0159 -0.06073,0.0159 -0.0668,0 -0.09413,-0.007 -0.06073,-0.0159 z m 1.301291,-0.0359 c 0.06203,-0.008 0.163528,-0.008 0.225557,0 0.06203,0.008 0.01128,0.014 -0.112779,0.014 -0.124056,0 -0.174807,-0.006 -0.112778,-0.014 z m 1.405871,-0.0345 c 0.05275,-0.008 0.130825,-0.008 0.173505,4.8e-4 0.04268,0.008 -4.77e-4,0.0148 -0.09591,0.0145 -0.09543,-2.6e-4 -0.130348,-0.007 -0.0776,-0.015 z m 1.248762,-0.0337 c 0.0334,-0.009 0.08805,-0.009 0.121454,0 0.0334,0.009 0.0061,0.0159 -0.06073,0.0159 -0.0668,0 -0.09413,-0.007 -0.06073,-0.0159 z m 1.520912,-1.90488 c 0.0017,-0.0404 0.0099,-0.0487 0.02097,-0.021 0.01002,0.025 0.0088,0.055 -0.0027,0.0665 -0.01153,0.0115 -0.01973,-0.009 -0.01823,-0.0455 z m 0,-0.27761 c 0.0017,-0.0404 0.0099,-0.0486 0.02097,-0.021 0.01002,0.025 0.0088,0.055 -0.0027,0.0665 -0.01153,0.0115 -0.01973,-0.009 -0.01823,-0.0456 z m -2.223609,-0.097 c 0,-0.007 0.02733,-0.0345 0.06073,-0.0607 0.05504,-0.0432 0.05626,-0.0419 0.0131,0.0131 -0.04533,0.0578 -0.07383,0.0762 -0.07383,0.0476 z m -5.313693,-1.26217 c -0.04316,-0.055 -0.04194,-0.0563 0.0131,-0.0131 0.0334,0.0262 0.06073,0.0535 0.06073,0.0607 0,0.0286 -0.0285,0.0102 -0.07383,-0.0476 z m 12.178002,-0.10178 c 0.02505,-0.01 0.05498,-0.009 0.06651,0.003 0.01153,0.0115 -0.009,0.0197 -0.04554,0.0182 -0.04042,-0.002 -0.04865,-0.01 -0.02097,-0.021 z m -16.814847,-0.0358 c 0.05249,-0.008 0.138371,-0.008 0.190856,0 0.05249,0.008 0.0095,0.0145 -0.09543,0.0145 -0.104971,0 -0.147913,-0.007 -0.09543,-0.0145 z m 17.281143,9.4e-4 c 0.0334,-0.009 0.08805,-0.009 0.121454,0 0.0334,0.009 0.0061,0.0159 -0.06073,0.0159 -0.0668,0 -0.09413,-0.007 -0.06073,-0.0159 z m -9.846434,-0.4966 c 0.03454,-0.0382 0.07062,-0.0694 0.08016,-0.0694 0.0095,0 -0.01091,0.0312 -0.04546,0.0694 -0.03454,0.0382 -0.07062,0.0694 -0.08016,0.0694 -0.0095,0 0.01091,-0.0312 0.04546,-0.0694 z m 5.916536,0.0563 c 0,-0.007 0.02733,-0.0345 0.06073,-0.0607 0.05504,-0.0432 0.05627,-0.0419 0.0131,0.0131 -0.04533,0.0578 -0.07383,0.0762 -0.07383,0.0476 z m -2.53044,-0.11124 c 0.0017,-0.0404 0.0099,-0.0486 0.02097,-0.021 0.01002,0.025 0.0088,0.055 -0.0027,0.0665 -0.01153,0.0115 -0.01973,-0.009 -0.01823,-0.0455 z m -6.877982,-0.0752 c -0.04316,-0.055 -0.04194,-0.0563 0.0131,-0.0131 0.0334,0.0262 0.06073,0.0535 0.06073,0.0607 0,0.0286 -0.0285,0.0102 -0.07383,-0.0476 z m 6.877982,-0.27182 c 0.0017,-0.0404 0.0099,-0.0486 0.02097,-0.021 0.01002,0.0251 0.0088,0.055 -0.0027,0.0665 -0.01153,0.0115 -0.01973,-0.009 -0.01823,-0.0455 z m -0.798125,-0.13881 c 0.0017,-0.0404 0.0099,-0.0486 0.02097,-0.021 0.01002,0.025 0.0088,0.055 -0.0027,0.0665 -0.01153,0.0115 -0.01973,-0.009 -0.01823,-0.0456 z m -3.438148,-0.27472 c 0.06475,-0.0668 0.125526,-0.12145 0.135068,-0.12145 0.0095,0 -0.03562,0.0547 -0.100367,0.12145 -0.06474,0.0668 -0.125525,0.12146 -0.135068,0.12146 -0.0095,0 0.03562,-0.0547 0.100367,-0.12146 z m 1.977962,-0.23865 c 0,-0.007 0.02733,-0.0345 0.06073,-0.0607 0.05504,-0.0432 0.05626,-0.0419 0.0131,0.0131 -0.04533,0.0578 -0.07383,0.0762 -0.07383,0.0476 z m 4.121159,-0.15025 c 0.04317,-0.008 0.105627,-0.008 0.138805,7e-4 0.03318,0.009 -0.0021,0.0155 -0.07848,0.0151 -0.07634,-3.8e-4 -0.103488,-0.007 -0.06032,-0.0158 z m -2.730376,-0.0651 c 0.0017,-0.0404 0.0099,-0.0486 0.02097,-0.021 0.01002,0.0251 0.0088,0.055 -0.0027,0.0665 -0.01153,0.0115 -0.01973,-0.009 -0.01823,-0.0455 z m -1.685742,-0.39617 c -0.0118,-0.0191 -0.0049,-0.0347 0.0153,-0.0347 0.02021,0 0.03675,0.0156 0.03675,0.0347 0,0.0191 -0.0069,0.0347 -0.0153,0.0347 -0.0084,0 -0.02495,-0.0156 -0.03675,-0.0347 z m -0.389727,-0.0241 c 0.03376,-0.009 0.08061,-0.008 0.104103,10e-4 0.02349,0.01 -0.0041,0.0167 -0.06139,0.016 -0.05726,-7.1e-4 -0.07648,-0.008 -0.04272,-0.0173 z m -4.648889,-0.52574 c -0.08107,-0.0811 -0.02023,-0.0879 0.100753,-0.0113 0.103826,0.0657 0.106593,0.0717 0.03085,0.066 -0.04576,-0.003 -0.104984,-0.0281 -0.131603,-0.0547 z m 9.005384,-0.89666 c 0.02505,-0.01 0.05498,-0.009 0.06651,0.003 0.01153,0.0115 -0.009,0.0197 -0.04555,0.0182 -0.04042,-0.002 -0.04865,-0.01 -0.02097,-0.021 z m -8.80757,-0.0566 c 0,-0.006 0.05075,-0.0567 0.112778,-0.11278 l 0.112779,-0.10192 -0.10192,0.11278 c -0.095,0.10513 -0.123637,0.12873 -0.123637,0.10192 z m 4.687539,-0.831785 c 0.008,-0.0054 0.04569,-0.03273 0.08386,-0.06073 0.0642,-0.04709 0.06583,-0.04635 0.02178,0.0098 -0.02619,0.0334 -0.06393,0.06073 -0.08386,0.06073 -0.01993,0 -0.02973,-0.0044 -0.02178,-0.0098 z m 4.224135,-0.187391 c 0.02505,-0.01002 0.05498,-0.0088 0.06651,0.0027 0.01153,0.01153 -0.009,0.01973 -0.04555,0.01823 -0.04042,-0.0017 -0.04865,-0.0099 -0.02096,-0.02097 z m 4.693893,-0.100641 c 0.0017,-0.04042 0.0099,-0.04865 0.02097,-0.02097 0.01002,0.02505 0.0088,0.05498 -0.0027,0.06651 -0.01153,0.01153 -0.01973,-0.009 -0.01823,-0.04555 z m -1.662913,-0.04916 c 0,-0.04771 0.0079,-0.06723 0.0175,-0.04338 0.0096,0.02386 0.0096,0.0629 0,0.08675 -0.0096,0.02386 -0.0175,0.0043 -0.0175,-0.04338 z M 74.84054,99.046528 c -0.01883,-0.04945 -0.01485,-0.05344 0.01943,-0.01942 0.02371,0.02354 0.03438,0.05154 0.02369,0.06222 -0.01068,0.01068 -0.03009,-0.0086 -0.04312,-0.0428 z m -6.33518,-0.23148 c 0,-0.0072 0.02733,-0.03453 0.06073,-0.06073 0.05504,-0.04316 0.05627,-0.04194 0.0131,0.0131 -0.04533,0.0578 -0.07383,0.07619 -0.07383,0.04763 z m 0.770189,-0.143053 c 7.07e-4,-0.05726 0.0085,-0.07648 0.01728,-0.04272 0.0088,0.03376 0.0082,0.08061 -0.0013,0.104103 -0.0095,0.02349 -0.0167,-0.0041 -0.016,-0.06139 z m 6.415677,-0.03759 c 0.0017,-0.04042 0.0099,-0.04865 0.02097,-0.02096 0.01002,0.02505 0.0088,0.05498 -0.0027,0.06651 -0.01153,0.01153 -0.01973,-0.009 -0.01823,-0.04555 z m -6.569921,-0.106843 c 0.02386,-0.0096 0.06289,-0.0096 0.08675,0 0.02386,0.0096 0.0043,0.0175 -0.04338,0.0175 -0.04771,0 -0.06723,-0.0079 -0.04338,-0.0175 z m 3.149124,-0.08112 c 0.03454,-0.03817 0.07062,-0.0694 0.08016,-0.0694 0.0095,0 -0.01091,0.03123 -0.04546,0.0694 -0.03455,0.03817 -0.07062,0.0694 -0.08016,0.0694 -0.0095,0 0.01091,-0.03123 0.04546,-0.0694 z m 5.086449,-0.124345 c 0.0017,-0.04042 0.0099,-0.04865 0.02097,-0.02097 0.01002,0.02505 0.0088,0.05498 -0.0027,0.06651 -0.01153,0.01153 -0.01973,-0.009 -0.01823,-0.04555 z m -4.62666,-0.0027 c 0.02386,-0.0096 0.0629,-0.0096 0.08675,0 0.02386,0.0096 0.0043,0.0175 -0.04338,0.0175 -0.04771,0 -0.06723,-0.0079 -0.04338,-0.0175 z M 73.1488,98.31863 c 0.02505,-0.01002 0.05498,-0.0088 0.06651,0.0027 0.01153,0.01153 -0.009,0.01973 -0.04555,0.01823 -0.04042,-0.0017 -0.04865,-0.0099 -0.02097,-0.02097 z m -9.365414,-0.314631 -0.08413,-0.09543 0.09543,0.08413 c 0.08919,0.07863 0.111342,0.106729 0.08413,0.106729 -0.0062,0 -0.04916,-0.04294 -0.09543,-0.09543 z M 70.57875,97.59063 c 0.02386,-0.0096 0.0629,-0.0096 0.08675,0 0.02386,0.0096 0.0043,0.0175 -0.04338,0.0175 -0.04771,0 -0.06723,-0.0079 -0.04338,-0.0175 z m 0.303635,-0.115822 c 0.03454,-0.03817 0.07062,-0.0694 0.08016,-0.0694 0.0095,0 -0.01091,0.03123 -0.04546,0.0694 -0.03454,0.03817 -0.07062,0.0694 -0.08016,0.0694 -0.0095,0 0.01091,-0.03123 0.04546,-0.0694 z m -1.934586,-0.09238 c 0.02386,-0.0096 0.0629,-0.0096 0.08675,0 0.02386,0.0096 0.0043,0.0175 -0.04338,0.0175 -0.04771,0 -0.06723,-0.0079 -0.04338,-0.0175 z m -0.393684,-0.228602 -0.0661,-0.07808 0.07808,0.06611 c 0.04294,0.03636 0.07808,0.07149 0.07808,0.07808 0,0.02777 -0.02793,0.0073 -0.09005,-0.06611 z m -0.157284,-0.156154 c -0.04316,-0.05504 -0.04194,-0.05627 0.0131,-0.0131 0.0334,0.02619 0.06073,0.05352 0.06073,0.06073 0,0.02856 -0.0285,0.01018 -0.07383,-0.04762 z m 1.540025,-0.13013 c 3.85e-4,-0.07634 0.0075,-0.103487 0.01579,-0.06032 0.0083,0.04317 0.008,0.105627 -7.01e-4,0.138805 -0.0087,0.03318 -0.01548,-0.0021 -0.01509,-0.07848 z m 2.24682,0.07365 c 0,-0.0072 0.02733,-0.03453 0.06073,-0.06073 0.05504,-0.04316 0.05626,-0.04194 0.0131,0.0131 -0.04533,0.0578 -0.07383,0.07619 -0.07383,0.04763 z m -1.107695,-0.145945 c 0.0017,-0.04042 0.0099,-0.04865 0.02097,-0.02097 0.01002,0.02505 0.0088,0.05498 -0.0027,0.06651 -0.01153,0.01153 -0.01973,-0.009 -0.01823,-0.04555 z M 68.04982,96.615956 c -0.04316,-0.05504 -0.04194,-0.05627 0.0131,-0.0131 0.0578,0.04533 0.07619,0.07383 0.04763,0.07383 -0.0072,0 -0.03453,-0.02733 -0.06073,-0.06073 z m 3.026161,-0.237125 c 0.0017,-0.04042 0.0099,-0.04865 0.02097,-0.02097 0.01002,0.02505 0.0088,0.05498 -0.0027,0.06651 -0.01153,0.01153 -0.01973,-0.009 -0.01823,-0.04555 z m -1.234629,-0.187964 c 0.07455,-0.07634 0.143347,-0.138804 0.15289,-0.138804 0.0095,0 -0.04364,0.06246 -0.118189,0.138804 -0.07455,0.07634 -0.143346,0.138805 -0.152889,0.138805 -0.0095,0 0.04364,-0.06246 0.118188,-0.138805 z m -2.312049,-0.16483 c -0.04316,-0.05504 -0.04194,-0.05626 0.0131,-0.0131 0.0334,0.02619 0.06073,0.05352 0.06073,0.06073 0,0.02856 -0.0285,0.01018 -0.07383,-0.04762 z m -1.169931,-0.737398 c 0,-0.04771 0.0079,-0.06723 0.0175,-0.04338 0.0096,0.02386 0.0096,0.0629 0,0.08675 -0.0096,0.02386 -0.0175,0.0043 -0.0175,-0.04338 z m -0.0027,-0.401954 c 0.0017,-0.04042 0.0099,-0.04865 0.02096,-0.02097 0.01002,0.02505 0.0088,0.05498 -0.0027,0.06651 -0.01153,0.01153 -0.01973,-0.009 -0.01823,-0.04555 z m -2.25831,-0.270468 c 0,-0.0072 0.02733,-0.03453 0.06073,-0.06073 0.05504,-0.04316 0.05627,-0.04194 0.0131,0.0131 -0.04533,0.0578 -0.07383,0.07619 -0.07383,0.04763 z m 2.643729,-1.09924 c -0.04417,-0.01771 -0.07058,-0.04796 -0.05868,-0.0672 0.03558,-0.05757 0.116662,-0.03972 0.156336,0.03441 0.04059,0.07585 0.02378,0.0815 -0.09766,0.03279 z m 1.893438,-1.131511 c 0.02386,-0.0096 0.0629,-0.0096 0.08675,0 0.02386,0.0096 0.0043,0.0175 -0.04338,0.0175 -0.04771,0 -0.06723,-0.0079 -0.04338,-0.0175 z m 0.869696,-7.22e-4 c 0.02505,-0.01002 0.05498,-0.0088 0.06651,0.0027 0.01153,0.01153 -0.009,0.01973 -0.04555,0.01823 -0.04042,-0.0017 -0.04865,-0.0099 -0.02097,-0.02097 z"
         id="path6" /><path
         style="fill:#a4d4ba"
         d="m 68.357881,113.96742 c 0.06203,-0.008 0.163529,-0.008 0.225557,0 0.06203,0.008 0.01128,0.014 -0.112779,0.014 -0.124056,0 -0.174807,-0.006 -0.112778,-0.014 z m 1.198234,-4.4e-4 c 0.09123,-0.007 0.231772,-0.007 0.31231,1.9e-4 0.08054,0.007 0.0059,0.0131 -0.165877,0.013 -0.17177,-1.1e-4 -0.237665,-0.006 -0.146433,-0.0132 z m -2.979962,-1.61408 -0.06611,-0.0781 0.07808,0.0661 c 0.07337,0.0621 0.09387,0.0901 0.0661,0.0901 -0.0066,0 -0.04172,-0.0351 -0.07808,-0.0781 z m 1.348624,-0.8482 c 0.03376,-0.009 0.08061,-0.008 0.104104,0.001 0.02349,0.01 -0.0041,0.0167 -0.06139,0.016 -0.05726,-7e-4 -0.07648,-0.008 -0.04272,-0.0173 z m 1.075734,-0.0347 c 0.03376,-0.009 0.08061,-0.008 0.104104,0.001 0.02349,0.01 -0.0041,0.0167 -0.06139,0.016 -0.05726,-7e-4 -0.07648,-0.008 -0.04272,-0.0173 z m 1.057723,-0.0336 c 0.02386,-0.01 0.0629,-0.01 0.08675,0 0.02386,0.01 0.0043,0.0175 -0.04338,0.0175 -0.04771,0 -0.06723,-0.008 -0.04338,-0.0175 z m 0.973799,-0.0354 c 0.02505,-0.01 0.05498,-0.009 0.06651,0.003 0.01153,0.0115 -0.009,0.0197 -0.04555,0.0182 -0.04042,-0.002 -0.04865,-0.01 -0.02097,-0.021 z m -3.992794,-0.24218 c 0.02386,-0.01 0.0629,-0.01 0.08675,0 0.02386,0.01 0.0043,0.0175 -0.04338,0.0175 -0.04771,0 -0.06723,-0.008 -0.04338,-0.0175 z m 1.179837,-0.0347 c 0.02386,-0.01 0.0629,-0.01 0.08675,0 0.02386,0.01 0.0043,0.0175 -0.04338,0.0175 -0.04771,0 -0.06723,-0.008 -0.04338,-0.0175 z m -0.711372,-0.69497 c 0.0334,-0.009 0.08805,-0.009 0.121454,0 0.0334,0.009 0.0061,0.0159 -0.06073,0.0159 -0.0668,0 -0.09413,-0.007 -0.06073,-0.0159 z m 1.058383,-0.0338 c 0.02386,-0.01 0.0629,-0.01 0.08675,0 0.02386,0.01 0.0043,0.0175 -0.04338,0.0175 -0.04771,0 -0.06723,-0.008 -0.04338,-0.0175 z m 1.093745,-0.0358 c 0.03376,-0.009 0.08061,-0.008 0.104103,0.001 0.02349,0.01 -0.0041,0.0167 -0.06139,0.016 -0.05726,-7.1e-4 -0.07648,-0.008 -0.04272,-0.0173 z m 1.161826,-0.0336 c 0.02386,-0.01 0.0629,-0.01 0.08675,0 0.02386,0.01 0.0043,0.0175 -0.04338,0.0175 -0.04771,0 -0.06723,-0.008 -0.04338,-0.0175 z m -3.123098,-0.27761 c 0.02386,-0.01 0.0629,-0.01 0.08675,0 0.02386,0.01 0.0043,0.0175 -0.04338,0.0175 -0.04771,0 -0.06723,-0.008 -0.04338,-0.0175 z m 1.182006,-0.0354 c 0.02505,-0.01 0.05498,-0.009 0.06651,0.003 0.01153,0.0115 -0.009,0.0197 -0.04554,0.0182 -0.04042,-0.002 -0.04865,-0.01 -0.02097,-0.021 z m 1.160978,-0.035 c 0.03376,-0.009 0.08061,-0.008 0.104103,10e-4 0.02349,0.01 -0.0041,0.0167 -0.06139,0.016 -0.05726,-7.1e-4 -0.07648,-0.008 -0.04272,-0.0173 z m 1.129294,-0.0344 c 0.02505,-0.01 0.05498,-0.009 0.06651,0.003 0.01153,0.0115 -0.009,0.0197 -0.04555,0.0182 -0.04042,-0.002 -0.04865,-0.01 -0.02096,-0.021 z m -6.595376,-0.14021 c 0.06203,-0.008 0.163529,-0.008 0.225557,0 0.06203,0.008 0.01128,0.014 -0.112779,0.014 -0.124056,0 -0.174806,-0.006 -0.112778,-0.014 z m 8.58852,10e-4 c 0.0334,-0.009 0.08805,-0.009 0.121453,0 0.0334,0.009 0.0061,0.0159 -0.06073,0.0159 -0.0668,0 -0.09413,-0.007 -0.06073,-0.0159 z m -5.378669,-0.48582 c 0.0334,-0.009 0.08805,-0.009 0.121453,0 0.0334,0.009 0.0061,0.0159 -0.06073,0.0159 -0.0668,0 -0.09413,-0.007 -0.06073,-0.0159 z m 1.180497,-0.0348 c 0.03376,-0.009 0.08061,-0.008 0.104103,0.001 0.02349,0.009 -0.0041,0.0167 -0.06139,0.016 -0.05726,-7e-4 -0.07648,-0.008 -0.04272,-0.0173 z m 1.179837,-0.0347 c 0.03376,-0.009 0.08061,-0.008 0.104104,0.001 0.02349,0.009 -0.0041,0.0167 -0.06139,0.016 -0.05726,-7e-4 -0.07648,-0.008 -0.04272,-0.0173 z m -2.065375,-0.31124 c 0.02386,-0.01 0.0629,-0.01 0.08675,0 0.02386,0.01 0.0043,0.0175 -0.04338,0.0175 -0.04771,0 -0.06723,-0.008 -0.04338,-0.0175 z m 1.214538,-0.0347 c 0.02386,-0.01 0.0629,-0.01 0.08675,0 0.02386,0.01 0.0043,0.0175 -0.04338,0.0175 -0.04771,0 -0.06723,-0.008 -0.04338,-0.0175 z m 1.251408,-0.0354 c 0.02505,-0.01 0.05498,-0.009 0.06651,0.003 0.01153,0.0115 -0.009,0.0197 -0.04555,0.0182 -0.04042,-0.002 -0.04865,-0.01 -0.02097,-0.021 z m -2.257335,-0.66016 c 0.04317,-0.008 0.105627,-0.008 0.138804,7e-4 0.03318,0.009 -0.0021,0.0155 -0.07848,0.0151 -0.07634,-3.8e-4 -0.103487,-0.007 -0.06032,-0.0158 z m 1.301547,-0.0342 c 0.03376,-0.009 0.08061,-0.008 0.104103,0.001 0.02349,0.01 -0.0041,0.0167 -0.06139,0.016 -0.05726,-7.1e-4 -0.07648,-0.008 -0.04272,-0.0173 z m 1.213878,-0.0346 c 0.0334,-0.009 0.08805,-0.009 0.121453,0 0.0334,0.009 0.0061,0.0159 -0.06073,0.0159 -0.0668,0 -0.09413,-0.007 -0.06073,-0.0159 z m -3.573552,-0.27773 c 0.03376,-0.009 0.08061,-0.008 0.104103,0.001 0.02349,0.01 -0.0041,0.0167 -0.06139,0.016 -0.05726,-7.1e-4 -0.07648,-0.008 -0.04272,-0.0173 z m 1.439434,-0.0336 c 0.02386,-0.01 0.0629,-0.01 0.08675,0 0.02386,0.01 0.0043,0.0175 -0.04338,0.0175 -0.04771,0 -0.06723,-0.008 -0.04338,-0.0175 z m 1.318642,-0.0347 c 0.02386,-0.01 0.0629,-0.01 0.08675,0 0.02386,0.01 0.0043,0.0175 -0.04338,0.0175 -0.04771,0 -0.06723,-0.008 -0.04338,-0.0175 z m 1.179837,-0.0347 c 0.02386,-0.01 0.0629,-0.01 0.08675,0 0.02386,0.01 0.0043,0.0175 -0.04338,0.0175 -0.04771,0 -0.06723,-0.008 -0.04338,-0.0175 z m -4.817329,-1.37409 c -0.1272,-0.1756 -0.129776,-0.1879 -0.147038,-0.70234 -0.01141,-0.3402 -0.03046,-0.46065 -0.104077,-0.65805 -0.04956,-0.1329 -0.08693,-0.24275 -0.08305,-0.24411 0.0039,-0.001 0.124172,-0.0312 0.267314,-0.0662 0.143142,-0.0351 0.386311,-0.11416 0.540375,-0.17578 l 0.280118,-0.11202 0.125685,0.19432 c 0.262432,0.40575 0.386063,0.78977 0.347301,1.07876 -0.01428,0.10645 0.0067,0.15946 0.13851,0.34925 0.14776,0.21284 0.268364,0.42229 0.268364,0.46607 0,0.0111 -0.344245,0.0186 -0.764988,0.0166 l -0.764989,-0.004 z m 6.152696,-0.37268 c 0,-0.0668 0.0071,-0.0941 0.01587,-0.0607 0.0087,0.0334 0.0087,0.088 0,0.12145 -0.0087,0.0334 -0.01587,0.006 -0.01587,-0.0607 z m -12.333444,-1.93227 c 0.02505,-0.01 0.05498,-0.009 0.06651,0.003 0.01153,0.0115 -0.009,0.0197 -0.04555,0.0182 -0.04042,-0.002 -0.04865,-0.01 -0.02097,-0.021 z m 17.660686,-7.8e-4 c 0.04294,-0.008 0.113213,-0.008 0.156155,0 0.04294,0.008 0.0078,0.015 -0.07808,0.015 -0.08589,0 -0.12102,-0.007 -0.07808,-0.015 z M 65.38565,103.86457 c -0.03891,-0.0546 -0.06079,-0.1093 -0.04863,-0.12146 0.01216,-0.0122 0.0063,-0.0221 -0.01309,-0.0221 -0.12355,0 -1.667671,-1.90656 -1.546164,-1.90909 0.01408,-2.9e-4 0.0081,-0.012 -0.01323,-0.026 -0.06771,-0.0445 -0.233929,-0.40208 -0.176671,-0.38011 0.02799,0.0107 0.07069,10e-4 0.09491,-0.0211 0.03409,-0.0315 0.03817,-0.0303 0.0181,0.005 -0.01652,0.0291 -0.0089,0.0421 0.02094,0.0357 0.02577,-0.005 0.171505,0.0423 0.323852,0.10615 0.295923,0.12409 0.802999,0.24317 1.058998,0.24869 l 0.156155,0.003 0.248391,0.37693 0.24839,0.37694 -0.0847,0.2708 c -0.07721,0.24686 -0.172361,0.76094 -0.193022,1.04289 -0.01001,0.13656 -0.0069,0.13611 -0.09422,0.0134 z m 5.759733,-0.23321 c 0.0017,-0.0404 0.0099,-0.0486 0.02097,-0.021 0.01002,0.0251 0.0088,0.055 -0.0027,0.0665 -0.01153,0.0115 -0.01973,-0.009 -0.01823,-0.0455 z M 68.5081,102.62503 c 0.0017,-0.0404 0.0099,-0.0486 0.02097,-0.021 0.01002,0.025 0.0088,0.055 -0.0027,0.0665 -0.01153,0.0115 -0.01973,-0.009 -0.01823,-0.0455 z m 4.710102,-0.24637 c 0.02505,-0.01 0.05498,-0.009 0.06651,0.003 0.01153,0.0115 -0.009,0.0197 -0.04555,0.0182 -0.04042,-0.002 -0.04865,-0.01 -0.02096,-0.021 z m -9.7445,-1.12348 c 0,-0.0202 0.01562,-0.0271 0.0347,-0.0153 0.01909,0.0118 0.0347,0.0283 0.0347,0.0367 0,0.008 -0.01561,0.0153 -0.0347,0.0153 -0.01909,0 -0.0347,-0.0165 -0.0347,-0.0367 z m 6.749362,-0.37967 c 0.0118,-0.0191 0.02833,-0.0347 0.03675,-0.0347 0.0084,0 0.0153,0.0156 0.0153,0.0347 0,0.0191 -0.01654,0.0347 -0.03675,0.0347 -0.02021,0 -0.0271,-0.0156 -0.0153,-0.0347 z m -7.02314,-0.42329 c -0.152738,-0.467425 -0.231062,-1.745223 -0.139962,-2.283391 0.01777,-0.10497 0.03961,-0.249343 0.04853,-0.320827 0.08163,-0.654144 0.671905,-1.982974 1.089141,-2.451894 0.04081,-0.04586 0.0742,-0.09448 0.0742,-0.108029 0,-0.03709 0.852019,-0.901668 0.888568,-0.901668 0.01742,0 0.05117,-0.03123 0.07501,-0.0694 0.02384,-0.03817 0.06101,-0.0694 0.0826,-0.0694 0.02159,0 0.05924,-0.02733 0.08366,-0.06073 0.02442,-0.0334 0.05774,-0.06073 0.07404,-0.06073 0.0163,0 0.06735,-0.03514 0.113444,-0.07808 0.04609,-0.04294 0.102984,-0.07808 0.126423,-0.07808 0.02344,0 0.04782,-0.01382 0.05418,-0.0307 0.01792,-0.04756 0.549434,-0.351913 0.549434,-0.314613 0,0.01815 -0.01822,0.03301 -0.04049,0.03301 -0.02227,0 -0.03148,0.009 -0.02048,0.02001 0.011,0.011 -0.0077,0.08518 -0.04159,0.16483 -0.104819,0.246439 -0.116822,0.282251 -0.109606,0.327004 0.0038,0.02386 -0.0054,0.04338 -0.02055,0.04338 -0.01515,0 -0.02882,0.03513 -0.03037,0.07808 -0.0016,0.04294 -0.02298,0.240381 -0.04762,0.438752 -0.02464,0.198372 -0.03589,0.435868 -0.025,0.527769 0.01974,0.166655 0.01923,0.167666 -0.192519,0.385398 -0.270196,0.277827 -0.573879,0.658644 -0.740479,0.928558 -0.0906,0.146782 -0.157368,0.21675 -0.220121,0.230667 -0.515999,0.114437 -1.075686,0.357019 -1.381568,0.598804 -0.09677,0.07649 -0.185405,0.132212 -0.196972,0.123826 -0.01157,-0.0084 -0.01336,-0.005 -0.004,0.0076 0.0094,0.01256 10e-4,0.04215 -0.01857,0.06575 -0.01959,0.0236 -0.03117,0.06176 -0.02573,0.08479 0.02665,0.112778 0.63209,0.751552 0.919107,0.969707 l 0.201696,0.153304 -0.0084,0.384098 -0.0084,0.384099 -0.147994,0.120229 c -0.276993,0.225028 -0.529362,0.462067 -0.699486,0.657007 -0.209514,0.24006 -0.2141,0.24184 -0.260153,0.1009 z m 9.217984,0.0186 c 0.02386,-0.01 0.0629,-0.01 0.08675,0 0.02386,0.01 0.0043,0.0175 -0.04338,0.0175 -0.04771,0 -0.06723,-0.008 -0.04338,-0.0175 z m -5.899185,-0.936929 c 0.02386,-0.0096 0.0629,-0.0096 0.08675,0 0.02386,0.0096 0.0043,0.0175 -0.04338,0.0175 -0.04771,0 -0.06723,-0.0079 -0.04338,-0.0175 z m 8.232834,-0.337131 c 0,-0.0072 0.02733,-0.03453 0.06073,-0.06073 0.05504,-0.04316 0.05627,-0.04194 0.0131,0.0131 -0.04533,0.0578 -0.07383,0.07619 -0.07383,0.04762 z m 0.948596,-0.264507 c 0,-0.143142 0.0061,-0.2017 0.01361,-0.130129 0.0075,0.07157 0.0075,0.188687 0,0.260258 -0.0075,0.07157 -0.01361,0.01301 -0.01361,-0.130129 z m -1.539469,-1.065991 c -0.120172,-0.08356 -0.18455,-0.164962 -0.35076,-0.443506 -0.07972,-0.133599 -0.222506,-0.359285 -0.317303,-0.501523 l -0.172359,-0.258616 0.03902,-0.279251 c 0.02146,-0.153588 0.039,-0.44903 0.03898,-0.656537 -5.3e-5,-0.455407 -0.0038,-0.456395 0.365013,0.09746 0.403929,0.606667 0.729148,1.342235 0.770626,1.742974 0.02945,0.284574 -0.167283,0.442189 -0.373213,0.298997 z m -8.717695,-0.797656 c 0.04294,-0.0083 0.113212,-0.0083 0.156155,0 0.04294,0.0083 0.0078,0.01504 -0.07808,0.01504 -0.08589,0 -0.121021,-0.0068 -0.07808,-0.01504 z m 7.680356,-1.383796 c 0.0017,-0.04042 0.0099,-0.04865 0.02097,-0.02097 0.01002,0.02505 0.0088,0.05498 -0.0027,0.06651 -0.01153,0.01153 -0.01973,-0.009 -0.01823,-0.04555 z m -1.940917,-0.690522 c -0.205964,-0.09478 -0.379932,-0.20369 -0.476051,-0.298024 -0.143781,-0.14111 -0.157459,-0.146824 -0.269303,-0.112498 -0.09173,0.02815 -0.189963,0.02101 -0.443528,-0.03224 -0.255394,-0.05364 -0.478604,-0.06959 -1.034049,-0.07389 l -0.70835,-0.0055 -0.159177,-0.140595 c -0.266167,-0.235093 -0.527012,-0.417847 -0.818498,-0.573455 -0.152685,-0.08151 -0.287575,-0.162871 -0.299755,-0.180804 -0.01218,-0.01793 -0.03602,-0.02403 -0.05299,-0.01354 -0.01696,0.01048 -0.05615,-0.02504 -0.08709,-0.07895 l -0.05625,-0.09801 0.248042,-0.08912 c 1.228627,-0.44142 2.139252,-0.473922 2.139252,-0.07635 v 0.148517 l 0.303527,0.02333 c 1.100356,0.08458 2.166045,0.489653 3.11453,1.183847 l 0.31231,0.228579 -0.156155,-0.0063 c -0.194391,-0.0078 -0.762227,0.140075 -0.999589,0.260355 -0.215486,0.109195 -0.164518,0.115179 -0.556876,-0.06538 z m 1.721295,0.02846 c 0.02386,-0.0096 0.0629,-0.0096 0.08675,0 0.02386,0.0096 0.0043,0.0175 -0.04338,0.0175 -0.04771,0 -0.06723,-0.0079 -0.04338,-0.0175 z m -8.423689,-0.788244 c 0,-0.0072 0.02733,-0.03453 0.06073,-0.06073 0.05504,-0.04316 0.05626,-0.04194 0.0131,0.0131 -0.04533,0.0578 -0.07383,0.07619 -0.07383,0.04763 z m 10.614107,-0.394637 c -0.04316,-0.05504 -0.04194,-0.05626 0.0131,-0.0131 0.0578,0.04533 0.07619,0.07383 0.04762,0.07383 -0.0072,0 -0.03453,-0.02733 -0.06073,-0.06073 z m -0.347011,-0.34701 c -0.04316,-0.05504 -0.04194,-0.05626 0.0131,-0.0131 0.0578,0.04533 0.07618,0.07383 0.04762,0.07383 -0.0072,0 -0.03453,-0.02733 -0.06073,-0.06073 z m -5.346048,-1.108113 c 0.02505,-0.01002 0.05498,-0.0088 0.06651,0.0027 0.01153,0.01153 -0.009,0.01973 -0.04555,0.01823 -0.04042,-0.0017 -0.04865,-0.0099 -0.02097,-0.02097 z"
         id="path5" /><path
         style="fill:#f9d20c"
         d="m 70.048324,103.04869 c -0.531862,-0.80343 -0.834806,-0.93315 -1.16803,-0.50014 l -0.06108,0.0794 -7.71e-4,-0.0969 c -0.0021,-0.2624 0.260325,-1.13816 0.389485,-1.29983 0.06772,-0.0848 0.16203,-0.0464 0.234363,0.0954 0.09689,0.18992 0.16686,0.18176 0.180279,-0.021 0.01037,-0.15663 0.01398,-0.16111 0.180758,-0.22424 l 0.170182,-0.0644 0.124777,0.0999 c 0.287843,0.23051 0.565333,0.57151 0.727571,0.8941 0.145874,0.29004 0.139877,0.30105 -0.08891,0.16328 -0.44408,-0.26741 -0.484958,-0.19891 -0.399024,0.66859 0.03744,0.37801 0.063,0.69285 0.05678,0.69965 -0.0062,0.007 -0.162086,-0.21542 -0.346384,-0.49382 z m -3.312719,-0.11281 c 0,-0.0292 0.674967,-1.43774 0.787807,-1.64395 0.157929,-0.28862 0.385142,-0.47822 0.332682,-0.27761 -0.01473,0.0563 -0.0011,0.0694 0.07265,0.0694 0.04994,0 0.09115,-0.0117 0.09157,-0.026 4.24e-4,-0.0143 0.02891,-0.0626 0.06329,-0.10731 l 0.06252,-0.0813 0.118272,0.0719 c 0.110326,0.0671 0.118314,0.0842 0.118888,0.25479 6.55e-4,0.19495 0.07925,0.23951 0.179014,0.10149 0.143323,-0.19827 0.140185,-0.19622 0.243314,-0.159 0.05434,0.0196 0.09616,0.0583 0.09293,0.086 -0.0047,0.04 -0.244573,0.61458 -0.270978,0.64899 -0.0037,0.005 -0.14955,0.0146 -0.324114,0.0216 -0.444664,0.0181 -0.575785,0.0908 -1.125419,0.62417 -0.243342,0.23616 -0.442439,0.42371 -0.442439,0.4168 z m 5.274565,-1.25994 c -0.162227,-0.0552 -0.470511,-0.17981 -0.685075,-0.2769 -0.214563,-0.0971 -0.409757,-0.17701 -0.433763,-0.17762 -0.08499,-0.002 -0.444044,-0.44348 -0.442194,-0.54353 0.0018,-0.0993 0.23235,-0.29601 0.302762,-0.25832 0.197192,0.10553 0.303276,-0.0266 0.130485,-0.16248 -0.265481,-0.20882 -0.0905,-0.24897 0.265016,-0.0608 0.2839,0.15027 0.628627,0.26281 0.805003,0.26281 0.154258,0 0.130249,0.0541 -0.08598,0.19384 -0.424668,0.27439 -0.39585,0.40309 0.190148,0.84916 0.345014,0.26263 0.357585,0.27409 0.300608,0.27416 -0.02863,3e-5 -0.184783,-0.0451 -0.347011,-0.10032 z m -3.323873,-0.79665 c -1.031182,-0.35619 -1.355572,-1.704348 -0.592168,-2.461045 1.04605,-1.036859 2.862414,-0.01549 2.528062,1.421562 -0.190869,0.820363 -1.122317,1.320513 -1.935894,1.039483 z m 0.929498,-0.51925 c 0.47824,-0.24768 0.671079,-0.777013 0.446601,-1.225901 -0.09617,-0.19232 -0.149686,-0.207989 -0.122147,-0.03577 0.124871,0.780898 -0.811124,1.264781 -1.335655,0.690487 -0.191894,-0.210098 0.0099,-0.502079 0.494522,-0.715663 0.181499,-0.07998 0.276436,-0.396057 0.155336,-0.517157 -0.135794,-0.135794 -0.683223,0.118938 -0.811115,0.377431 -0.03692,0.07462 -0.07466,0.128139 -0.08388,0.118928 -0.04399,-0.04399 -0.147992,0.290274 -0.145512,0.467706 0.0097,0.693069 0.78661,1.158569 1.401845,0.839939 z m -3.973275,0.14345 c 0.01909,-0.0177 0.221333,-0.11689 0.449439,-0.22045 0.490591,-0.22274 0.664456,-0.366822 0.69834,-0.578718 0.02609,-0.163137 0.04635,-0.172043 0.430939,-0.189355 l 0.225375,-0.01015 0.02596,0.207522 c 0.02531,0.202371 0.02338,0.209543 -0.07811,0.288971 -0.212632,0.16641 -0.208798,0.22864 0.01248,0.20263 0.182262,-0.0214 0.26763,0.0181 0.265353,0.12275 -1.31e-4,0.006 -0.16019,0.0127 -0.355686,0.0148 -0.299778,0.003 -0.683672,0.0458 -1.569986,0.17407 -0.08602,0.0125 -0.125609,0.008 -0.104104,-0.0121 z m 5.448072,-0.62957 c -0.29942,-0.136203 -0.309787,-0.483179 -0.01766,-0.590958 0.169464,-0.06252 0.221505,-0.157389 0.106384,-0.193927 -0.211541,-0.06714 0.42539,-0.500873 0.964191,-0.656587 l 0.185389,-0.05358 -0.120474,0.133351 c -0.41835,0.463063 -0.195257,0.846232 0.518439,0.890436 0.577722,0.03578 0.502608,0.08425 -0.456434,0.294535 -0.267199,0.05859 -0.605534,0.136867 -0.751855,0.173957 -0.315189,0.07989 -0.259236,0.07953 -0.427982,0.0028 z m -4.454466,-0.804054 c -0.206237,-0.234297 -0.390094,-0.376427 -0.872152,-0.674214 -0.181313,-0.112005 -0.345276,-0.217999 -0.364361,-0.235543 -0.03988,-0.03666 0.176459,-0.01508 0.815475,0.08134 0.669607,0.101038 0.801924,0.09319 0.932275,-0.05527 0.129543,-0.147541 0.192712,-0.124091 0.602797,0.223781 0.06522,0.05533 -0.147804,0.281411 -0.225815,0.239661 -0.151829,-0.08126 -0.302925,-0.09763 -0.302925,-0.03283 0,0.06775 0.207066,0.280761 0.272924,0.280761 0.0257,0 0.03655,0.0253 0.02602,0.06073 -0.0099,0.0334 -0.02899,0.107574 -0.04238,0.16483 -0.03356,0.143512 -0.06158,0.155018 -0.378973,0.155624 l -0.278564,5.31e-4 z m 4.048378,-0.389208 c -0.04655,-0.06202 -0.09549,-0.131177 -0.108739,-0.15368 -0.0143,-0.02429 0.05105,-0.111982 0.160836,-0.215813 0.102457,-0.0969 0.261316,-0.306247 0.356213,-0.469426 0.155882,-0.268046 0.180954,-0.294663 0.27884,-0.296029 0.141886,-0.002 0.325842,-0.130128 0.691052,-0.481405 0.406469,-0.390962 0.406957,-0.387377 0.03468,0.254348 -0.434345,0.748713 -0.654413,1.036604 -0.887264,1.160713 -0.116562,0.06213 -0.263466,0.158205 -0.326451,0.213508 l -0.11452,0.100549 z m -0.376347,-0.461777 c -0.02467,-0.02973 -0.11247,-0.09367 -0.195105,-0.142102 -0.144411,-0.08463 -0.150246,-0.09458 -0.150246,-0.25621 0,-0.235183 -0.09158,-0.266271 -0.17078,-0.05797 -0.03098,0.08149 -0.05042,0.09238 -0.1323,0.07415 -0.22514,-0.05014 -0.208884,0.0037 -0.194903,-0.645865 l 0.0128,-0.594652 0.285968,-0.300235 c 0.338036,-0.3549 0.32276,-0.354147 0.255704,-0.0126 -0.130059,0.662444 -0.103568,0.829553 0.173473,1.094296 0.251544,0.240379 0.488471,0.283847 0.688693,0.126351 l 0.08909,-0.07008 -0.07299,0.185167 c -0.07973,0.202269 -0.08254,0.206654 -0.302841,0.471625 -0.159786,0.192187 -0.213477,0.216194 -0.286564,0.128129 z m -2.184509,-0.216739 c 0,-0.116437 -0.480266,-1.429526 -0.748581,-2.046684 -0.07959,-0.183057 -0.05775,-0.200892 0.06323,-0.05164 0.884181,1.090759 1.437657,1.584266 1.649578,1.470849 0.127216,-0.06808 0.146203,-0.04669 0.146203,0.164712 v 0.203373 l -0.182181,0.02188 c -0.303334,0.03643 -0.326211,0.03143 -0.373036,-0.08162 -0.06021,-0.145351 -0.138805,-0.135526 -0.138805,0.01735 0,0.151907 -0.02176,0.151542 -0.202774,-0.0034 -0.245829,-0.210421 -0.30864,-0.05479 -0.08212,0.203484 0.04886,0.0557 0.04769,0.06586 -0.01286,0.111675 -0.08914,0.06745 -0.118657,0.06497 -0.118657,-0.01 z"
         id="path4" /><path
         style="fill:#45986e"
         d="m 68.186544,113.96882 c 0.02505,-0.01 0.05498,-0.009 0.06651,0.003 0.01153,0.0115 -0.009,0.0197 -0.04555,0.0182 -0.04042,-0.002 -0.04865,-0.01 -0.02097,-0.021 z m 0.240739,-1.35556 c 0.233798,-0.006 0.616378,-0.006 0.850177,0 0.233798,0.006 0.04251,0.0109 -0.425089,0.0109 -0.467597,0 -0.658887,-0.005 -0.425088,-0.0109 z m -0.711373,-1.10843 c 0.0334,-0.009 0.08806,-0.009 0.121454,0 0.0334,0.009 0.0061,0.0159 -0.06073,0.0159 -0.0668,0 -0.09413,-0.007 -0.06073,-0.0159 z m 1.058788,-0.0353 c 0.04317,-0.008 0.105627,-0.008 0.138805,7e-4 0.03318,0.009 -0.0021,0.0155 -0.07848,0.0151 -0.07634,-3.9e-4 -0.103488,-0.007 -0.06032,-0.0158 z m 1.075734,-0.0347 c 0.04317,-0.008 0.105627,-0.008 0.138804,7e-4 0.03318,0.009 -0.0021,0.0155 -0.07848,0.0151 -0.07634,-3.9e-4 -0.103487,-0.007 -0.06032,-0.0158 z m 0.936525,-0.0346 c 0.04294,-0.008 0.113212,-0.008 0.156155,0 0.04294,0.008 0.0078,0.015 -0.07808,0.015 -0.08588,0 -0.12102,-0.007 -0.07808,-0.015 z m -4.661507,-0.75629 c 3.3e-5,-0.36263 0.0052,-0.50626 0.01143,-0.31918 0.0063,0.18707 0.0062,0.48377 -6.1e-5,0.65932 -0.0063,0.17555 -0.0114,0.0225 -0.01137,-0.34014 z m 5.933947,-0.0174 c 0,-0.37217 0.0051,-0.52442 0.01134,-0.33833 0.0062,0.18608 0.0062,0.49058 0,0.67667 -0.0062,0.18608 -0.01134,0.0338 -0.01134,-0.33834 z m -4.828825,0.53032 c 0.05275,-0.008 0.130826,-0.008 0.173506,4.7e-4 0.04268,0.008 -4.77e-4,0.0148 -0.09591,0.0145 -0.09543,-2.6e-4 -0.130348,-0.007 -0.0776,-0.015 z m 1.144659,-0.0337 c 0.0334,-0.009 0.08805,-0.009 0.121454,0 0.0334,0.009 0.0061,0.0159 -0.06073,0.0159 -0.0668,0 -0.09413,-0.007 -0.06073,-0.0159 z m 1.110435,-0.0347 c 0.0334,-0.009 0.08805,-0.009 0.121454,0 0.0334,0.009 0.0061,0.0159 -0.06073,0.0159 -0.0668,0 -0.09413,-0.007 -0.06073,-0.0159 z m 1.075734,-0.0347 c 0.0334,-0.009 0.08805,-0.009 0.121454,0 0.0334,0.009 0.0061,0.0159 -0.06073,0.0159 -0.0668,0 -0.09413,-0.007 -0.06073,-0.0159 z m -3.278849,-0.62524 c 0.04317,-0.008 0.105628,-0.008 0.138805,7e-4 0.03318,0.009 -0.0021,0.0155 -0.07848,0.0151 -0.07634,-3.8e-4 -0.103488,-0.007 -0.06032,-0.0158 z m 1.075734,-0.0347 c 0.04317,-0.008 0.105627,-0.008 0.138805,7e-4 0.03318,0.009 -0.0021,0.0155 -0.07848,0.0151 -0.07634,-3.8e-4 -0.103488,-0.007 -0.06032,-0.0158 z m 1.040628,-0.0346 c 0.04294,-0.008 0.113213,-0.008 0.156155,0 0.04294,0.008 0.0078,0.015 -0.07808,0.015 -0.08589,0 -0.12102,-0.007 -0.07808,-0.015 z m 1.179837,-0.0347 c 0.04294,-0.008 0.113213,-0.008 0.156155,0 0.04294,0.008 0.0078,0.015 -0.07808,0.015 -0.08589,0 -0.12102,-0.007 -0.07808,-0.015 z m -2.688857,-0.27802 c 0.05275,-0.008 0.130825,-0.008 0.173506,4.8e-4 0.04268,0.008 -4.78e-4,0.0148 -0.09591,0.0145 -0.09543,-2.6e-4 -0.130348,-0.007 -0.0776,-0.015 z m 1.145136,-0.0347 c 0.05275,-0.008 0.130825,-0.008 0.173506,4.8e-4 0.04268,0.008 -4.78e-4,0.0148 -0.09591,0.0145 -0.09543,-2.6e-4 -0.130348,-0.007 -0.0776,-0.015 z m 1.214538,-0.0347 c 0.05275,-0.008 0.130825,-0.008 0.173506,4.7e-4 0.04268,0.008 -4.77e-4,0.0148 -0.09591,0.0145 -0.09543,-2.6e-4 -0.130349,-0.007 -0.0776,-0.015 z m -5.291989,-0.17315 c 0.04317,-0.008 0.105627,-0.008 0.138805,7e-4 0.03318,0.009 -0.0021,0.0155 -0.07848,0.0151 -0.07634,-3.8e-4 -0.103488,-0.007 -0.06032,-0.0158 z m 8.033559,5e-4 c 0.03376,-0.009 0.08061,-0.008 0.104103,10e-4 0.02349,0.01 -0.0041,0.0167 -0.06139,0.016 -0.05726,-7.1e-4 -0.07648,-0.008 -0.04272,-0.0173 z m -8.959478,-0.135 c 0.0017,-0.0404 0.0099,-0.0486 0.02096,-0.021 0.01002,0.025 0.0088,0.055 -0.0027,0.0665 -0.01153,0.0115 -0.01973,-0.009 -0.01823,-0.0455 z m 3.528501,-0.35131 c 0.04317,-0.008 0.105627,-0.008 0.138805,7e-4 0.03318,0.009 -0.0021,0.0155 -0.07848,0.0151 -0.07634,-3.9e-4 -0.103487,-0.007 -0.06032,-0.0158 z m 1.144732,-0.0346 c 0.04294,-0.008 0.113212,-0.008 0.156154,0 0.04294,0.008 0.0078,0.015 -0.07808,0.015 -0.08588,0 -0.12102,-0.007 -0.07808,-0.015 z m 1.162963,-0.0351 c 0.05275,-0.008 0.130825,-0.008 0.173506,4.7e-4 0.04268,0.008 -4.77e-4,0.0148 -0.09591,0.0145 -0.09543,-2.6e-4 -0.130349,-0.007 -0.0776,-0.015 z m 1.231816,-0.0343 c 0.04317,-0.008 0.105627,-0.008 0.138805,7e-4 0.03318,0.009 -0.0021,0.0155 -0.07848,0.0151 -0.07634,-3.9e-4 -0.103488,-0.008 -0.06032,-0.0158 z m -4.092964,-0.24207 c 0.02505,-0.01 0.05498,-0.009 0.06651,0.003 0.01153,0.0115 -0.009,0.0197 -0.04555,0.0182 -0.04042,-0.002 -0.04865,-0.01 -0.02096,-0.021 z m 1.247475,-0.0355 c 0.04317,-0.008 0.105627,-0.008 0.138804,7e-4 0.03318,0.009 -0.0021,0.0155 -0.07848,0.0151 -0.07634,-3.9e-4 -0.103487,-0.007 -0.06032,-0.0158 z m 1.197443,-0.0342 c 0.03376,-0.009 0.08061,-0.008 0.104104,10e-4 0.02349,0.01 -0.0041,0.0167 -0.06139,0.016 -0.05726,-7e-4 -0.07648,-0.008 -0.04272,-0.0173 z m 1.231229,-0.0351 c 0.04294,-0.008 0.113212,-0.008 0.156155,0 0.04294,0.008 0.0078,0.015 -0.07808,0.015 -0.08589,0 -0.12102,-0.007 -0.07808,-0.015 z m -2.671984,-0.65932 c 0.04294,-0.008 0.113212,-0.008 0.156155,0 0.04294,0.008 0.0078,0.015 -0.07808,0.015 -0.08589,0 -0.12102,-0.007 -0.07808,-0.015 z m 1.318641,-0.0347 c 0.04294,-0.008 0.113212,-0.008 0.156155,0 0.04294,0.008 0.0078,0.015 -0.07808,0.015 -0.08589,0 -0.12102,-0.007 -0.07808,-0.015 z m 1.249644,-0.0348 c 0.04317,-0.008 0.105627,-0.008 0.138804,7e-4 0.03318,0.009 -0.0021,0.0155 -0.07848,0.0151 -0.07634,-3.8e-4 -0.103487,-0.007 -0.06032,-0.0158 z m -3.140853,-0.27792 c 0.05249,-0.008 0.13837,-0.008 0.190856,0 0.05248,0.008 0.0095,0.0145 -0.09543,0.0145 -0.104971,0 -0.147914,-0.007 -0.09543,-0.0145 z m 1.405799,-0.0344 c 0.04317,-0.008 0.105627,-0.008 0.138804,7e-4 0.03318,0.009 -0.0021,0.0155 -0.07848,0.0151 -0.07634,-3.8e-4 -0.103488,-0.007 -0.06032,-0.0158 z m 1.318236,-0.0346 c 0.04294,-0.008 0.113213,-0.008 0.156155,0 0.04294,0.008 0.0078,0.015 -0.07808,0.015 -0.08589,0 -0.12102,-0.007 -0.07808,-0.015 z m -4.040245,-0.28782 c 0,-0.12405 0.0063,-0.1748 0.014,-0.11278 0.0077,0.062 0.0077,0.16353 0,0.22556 -0.0077,0.062 -0.014,0.0113 -0.014,-0.11278 z m 5.937544,0.0925 c -0.0098,-0.0255 -0.01304,-0.1777 -0.0073,-0.33834 l 0.01049,-0.29205 0.01703,0.33841 c 0.01692,0.33612 0.01382,0.38078 -0.02025,0.29198 z m -4.222272,-0.67376 c 0.710939,-0.005 1.874293,-0.005 2.585232,0 0.710938,0.005 0.129261,0.01 -1.292616,0.01 -1.421877,0 -2.003554,-0.004 -1.292616,-0.01 z m 4.207508,-0.007 c 0,-0.018 0.01544,-0.0422 0.0343,-0.0538 0.01967,-0.0122 0.02549,0.002 0.01364,0.0327 -0.02307,0.0601 -0.04794,0.0711 -0.04794,0.0212 z M 67.525054,106.542 c 0.04294,-0.008 0.113213,-0.008 0.156155,0 0.04294,0.008 0.0078,0.015 -0.07808,0.015 -0.08589,0 -0.12102,-0.007 -0.07808,-0.015 z m 0.425159,-0.11414 c -0.02368,-0.0572 -0.120846,-0.21686 -0.215929,-0.35489 -0.147815,-0.21457 -0.170458,-0.269 -0.156181,-0.37544 0.03838,-0.28611 -0.104705,-0.72541 -0.354528,-1.08852 -0.133465,-0.19398 -0.146235,-0.16232 0.132211,-0.32775 0.343292,-0.20394 0.753199,-0.55073 0.993419,-0.84045 0.184252,-0.22222 0.209367,-0.24151 0.21829,-0.16764 0.02272,0.1881 0.115278,0.55292 0.214317,0.84473 l 0.10526,0.31014 v 1.05188 1.05187 h -0.446904 -0.446904 z m 1.395223,-0.58147 -0.0101,-0.68529 0.09427,0.12145 c 0.194807,0.25098 0.694774,0.72873 0.762616,0.72873 0.101264,0 0.430264,-0.30846 0.677007,-0.63473 0.655335,-0.86656 0.839975,-1.91064 0.530504,-2.99983 -0.02173,-0.0765 -0.01852,-0.0761 0.208266,0.0267 0.598703,0.27147 1.60799,0.34989 2.165577,0.16827 0.180383,-0.0588 0.166467,-0.0345 -0.228769,0.39857 -1.337319,1.46538 -1.56319,1.8546 -1.593578,2.74601 -0.01779,0.52175 -0.02288,0.54477 -0.153361,0.69338 l -0.107197,0.12209 -1.167567,-5e-5 -1.167567,-6e-5 z m -3.676814,-0.13007 c 3.85e-4,-0.0763 0.0075,-0.10349 0.01579,-0.0603 0.0083,0.0432 0.008,0.10563 -7.01e-4,0.13881 -0.0087,0.0332 -0.01548,-0.002 -0.01509,-0.0785 z m 4.326259,-0.25159 -0.08413,-0.0954 0.09543,0.0841 c 0.08919,0.0786 0.111342,0.10673 0.08413,0.10673 -0.0062,0 -0.04916,-0.0429 -0.09543,-0.0954 z m 7.283349,-1.35102 c 0.02505,-0.01 0.05498,-0.009 0.06651,0.003 0.01153,0.0115 -0.009,0.0197 -0.04555,0.0182 -0.04042,-0.002 -0.04865,-0.01 -0.02097,-0.021 z m -11.503149,-0.2192 c 0,-0.12406 0.0063,-0.17481 0.014,-0.11278 0.0077,0.062 0.0077,0.16353 0,0.22556 -0.0077,0.062 -0.014,0.0113 -0.014,-0.11278 z m -0.296294,0.11278 c -0.0064,-0.0143 -0.002,-0.10411 0.0099,-0.19953 l 0.02153,-0.17351 0.0055,0.19953 c 0.005,0.1833 -0.007,0.23996 -0.03683,0.17351 z m -0.239756,-0.31231 c -0.04316,-0.055 -0.04194,-0.0563 0.0131,-0.0131 0.0334,0.0262 0.06073,0.0535 0.06073,0.0607 0,0.0286 -0.0285,0.0102 -0.07383,-0.0476 z m -0.451114,-0.52052 c -0.04316,-0.055 -0.04194,-0.0563 0.0131,-0.0131 0.0334,0.0262 0.06073,0.0535 0.06073,0.0607 0,0.0286 -0.0285,0.0102 -0.07383,-0.0476 z m -0.312309,-0.34701 c -0.04316,-0.055 -0.04194,-0.0563 0.0131,-0.0131 0.0334,0.0262 0.06073,0.0535 0.06073,0.0607 0,0.0286 -0.0285,0.0102 -0.07383,-0.0476 z m 1.049203,-0.63058 c -0.288814,-0.42168 -0.288225,-0.41913 -0.09672,-0.41913 0.161185,0 0.651663,-0.0586 0.761487,-0.091 0.04864,-0.0144 0.04048,0.0128 -0.03965,0.13192 -0.05549,0.0825 -0.160647,0.271 -0.233681,0.41891 -0.162758,0.32963 -0.135907,0.33242 -0.391436,-0.0407 z m 7.276978,0.18179 c 0.02505,-0.01 0.05498,-0.009 0.06651,0.003 0.01153,0.0115 -0.009,0.0197 -0.04554,0.0182 -0.04042,-0.002 -0.04865,-0.01 -0.02097,-0.021 z m 0.520516,0 c 0.02505,-0.01 0.05498,-0.009 0.06651,0.003 0.01153,0.0115 -0.009,0.0197 -0.04555,0.0182 -0.04042,-0.002 -0.04865,-0.01 -0.02097,-0.021 z m 0.896146,-0.5571 c -0.116807,-0.47687 -0.438895,-1.01538 -0.797855,-1.33396 -0.130914,-0.11619 -0.137601,-0.12986 -0.07443,-0.1522 0.666817,-0.23579 1.121888,-0.504207 1.559362,-0.919764 l 0.249256,-0.236769 -0.01309,0.215029 c -0.04027,0.661604 -0.257839,1.461314 -0.580004,2.131884 -0.279518,0.5818 -0.274285,0.57729 -0.343237,0.29578 z m -9.293809,-0.0675 c 0.02505,-0.01 0.05498,-0.009 0.06651,0.003 0.01153,0.0115 -0.009,0.0197 -0.04555,0.0182 -0.04042,-0.002 -0.04865,-0.01 -0.02096,-0.021 z m 0.310141,-0.34841 c 0.06203,-0.008 0.163528,-0.008 0.225557,0 0.06203,0.008 0.01128,0.014 -0.112779,0.014 -0.124056,0 -0.174807,-0.006 -0.112778,-0.014 z m 5.054386,-0.12238 -0.06611,-0.0781 0.07808,0.0661 c 0.04294,0.0364 0.07808,0.0715 0.07808,0.0781 0,0.0278 -0.02793,0.007 -0.09005,-0.0661 z m -1.202565,-0.32812 c 0.04294,-0.008 0.113212,-0.008 0.156154,0 0.04294,0.008 0.0078,0.015 -0.07808,0.015 -0.08589,0 -0.12102,-0.007 -0.07808,-0.015 z m -1.220833,-0.0823 c 0.07376,-0.0815 0.08052,-0.0824 0.06974,-0.009 -0.0047,0.0318 -0.03587,0.0619 -0.06933,0.0668 -0.05785,0.008 -0.05787,0.006 -4.12e-4,-0.0579 z m -0.173655,-0.42395 c 0.01303,-0.0342 0.03244,-0.0535 0.04312,-0.0428 0.01068,0.0107 2.2e-5,0.0387 -0.02369,0.0622 -0.03427,0.034 -0.03826,0.03 -0.01942,-0.0194 z m 4.430833,0.02 c 0.05248,-0.008 0.138371,-0.008 0.190856,0 0.05249,0.008 0.0095,0.0144 -0.09543,0.0144 -0.104971,0 -0.147913,-0.007 -0.09543,-0.0144 z m 0.156559,-0.2426 c 0.04317,-0.008 0.105628,-0.008 0.138805,7e-4 0.03318,0.009 -0.0021,0.0155 -0.07848,0.0151 -0.07634,-3.8e-4 -0.103488,-0.007 -0.06032,-0.0158 z m -8.649651,-0.0796 c 0.03455,-0.0382 0.07062,-0.0694 0.08016,-0.0694 0.0095,0 -0.01091,0.0312 -0.04546,0.0694 -0.03454,0.0382 -0.07062,0.0694 -0.08016,0.0694 -0.0095,0 0.01091,-0.0312 0.04546,-0.0694 z m 5.528318,-0.0931 c 0.02505,-0.01 0.05498,-0.009 0.06651,0.003 0.01153,0.0115 -0.009,0.0197 -0.04554,0.0182 -0.04042,-0.002 -0.04865,-0.01 -0.02097,-0.021 z m -6.132847,-0.412946 c 0.0017,-0.04042 0.0099,-0.04865 0.02096,-0.02096 0.01002,0.02505 0.0088,0.05498 -0.0027,0.06651 -0.01153,0.01153 -0.01973,-0.009 -0.01823,-0.04555 z m 1.264004,-0.04941 c 0.01157,-0.01872 0.02407,-0.189012 0.02779,-0.378429 0.0084,-0.42933 -0.0019,-0.42197 0.323902,-0.231261 0.149227,0.08735 0.291167,0.158825 0.315423,0.158825 0.08976,0 0.03955,0.05779 -0.115804,0.133261 -0.08795,0.04273 -0.252705,0.139327 -0.366126,0.214664 -0.113422,0.07534 -0.196756,0.12166 -0.185185,0.10294 z m 3.910483,-0.0865 c 7.08e-4,-0.05726 0.0085,-0.07648 0.01728,-0.04272 0.0088,0.03376 0.0082,0.08061 -0.0013,0.104104 -0.0095,0.02349 -0.0167,-0.0041 -0.016,-0.06139 z m 7.456709,0.03181 c 0.0017,-0.04042 0.0099,-0.04865 0.02097,-0.02097 0.01002,0.02505 0.0088,0.05498 -0.0027,0.06651 -0.01153,0.01153 -0.01973,-0.009 -0.01823,-0.04555 z m -8.964296,-0.0042 c 0.04294,-0.0083 0.113213,-0.0083 0.156155,0 0.04294,0.0083 0.0078,0.01504 -0.07808,0.01504 -0.08589,0 -0.12102,-0.0068 -0.07808,-0.01504 z m 3.449563,-0.04491 c 0,-0.04771 0.0079,-0.06723 0.0175,-0.04338 0.0096,0.02386 0.0096,0.0629 0,0.08675 -0.0096,0.02386 -0.0175,0.0043 -0.0175,-0.04338 z m -2.857475,0.011 c 0.02505,-0.01002 0.05498,-0.0088 0.06651,0.0027 0.01153,0.01153 -0.009,0.01973 -0.04555,0.01823 -0.04042,-0.0017 -0.04865,-0.0099 -0.02096,-0.02096 z m 10.072562,-0.06594 c 0.0017,-0.04042 0.0099,-0.04865 0.02097,-0.02096 0.01002,0.02505 0.0088,0.05498 -0.0027,0.06651 -0.01153,0.01153 -0.01973,-0.009 -0.01823,-0.04555 z m -14.881457,-0.15324 c 0,-0.0668 0.0071,-0.09413 0.01587,-0.06073 0.0087,0.0334 0.0087,0.08805 0,0.121454 -0.0087,0.0334 -0.01587,0.0061 -0.01587,-0.06073 z m 0.525589,-0.347011 c 0,-0.219484 0.0056,-0.309273 0.01252,-0.199531 0.0069,0.109742 0.0069,0.28932 0,0.399063 -0.0069,0.109742 -0.01252,0.01995 -0.01252,-0.199532 z m 3.830427,0.35717 c 0.04317,-0.0083 0.105627,-0.008 0.138805,7e-4 0.03318,0.0087 -0.0021,0.01548 -0.07848,0.01509 -0.07634,-3.85e-4 -0.103488,-0.0075 -0.06032,-0.01579 z m 10.704258,-0.183664 c 0,-0.0668 0.0071,-0.09413 0.01587,-0.06073 0.0087,0.0334 0.0087,0.08805 0,0.121454 -0.0087,0.0334 -0.01587,0.0061 -0.01587,-0.06073 z m -2.474455,-0.3677 c -0.39295,-0.420814 -1.330141,-0.775889 -2.050773,-0.77698 l -0.300994,-4.56e-4 0.13924,-0.208513 c 0.158451,-0.237282 0.399581,-0.802838 0.433958,-1.017821 0.01268,-0.07931 0.03064,-0.121471 0.0399,-0.09369 0.0093,0.02778 0.09009,0.160478 0.179625,0.294881 0.08953,0.134402 0.227735,0.354663 0.307117,0.48947 0.526025,0.893295 0.955182,0.540157 0.558159,-0.459289 -0.268444,-0.675768 -0.897213,-1.687558 -0.973724,-1.566877 -0.01865,0.02942 -0.02966,-0.004 -0.03053,-0.0928 -0.0036,-0.368238 -0.09156,-0.503165 -0.327998,-0.503165 -0.119422,0 -0.190193,-0.03548 -0.453157,-0.227193 -0.952923,-0.694717 -2.014877,-1.097986 -3.113853,-1.18246 l -0.303527,-0.02333 v -0.148517 c 0,-0.119114 -0.0181,-0.162755 -0.09143,-0.220437 l -0.09143,-0.07192 h 0.222472 c 2.876392,0 5.566679,2.381558 5.891587,5.215487 0.03024,0.263766 0.06226,0.683803 0.05212,0.68372 -0.0014,-1.2e-5 -0.04048,-0.04056 -0.08675,-0.09011 z M 62.47285,98.550541 c 0,-0.04771 0.0079,-0.06723 0.0175,-0.04338 0.0096,0.02386 0.0096,0.0629 0,0.08675 -0.0096,0.02386 -0.0175,0.0043 -0.0175,-0.04338 z m 15.061559,-0.05205 c 7.07e-4,-0.05726 0.0085,-0.07648 0.01728,-0.04272 0.0088,0.03376 0.0082,0.08061 -0.0013,0.104103 -0.0095,0.02349 -0.0167,-0.0041 -0.016,-0.06139 z m -1.877885,-0.141696 c 0.0017,-0.04042 0.0099,-0.04865 0.02097,-0.02097 0.01002,0.02505 0.0088,0.05498 -0.0027,0.06651 -0.01153,0.01153 -0.01973,-0.009 -0.01823,-0.04555 z M 63.025328,98.25269 c 0.0017,-0.04042 0.0099,-0.04865 0.02096,-0.02097 0.01002,0.02505 0.0088,0.05498 -0.0027,0.06651 -0.01153,0.01153 -0.01973,-0.009 -0.01823,-0.04555 z m 14.33155,-0.0694 c 0.0017,-0.04042 0.0099,-0.04865 0.02097,-0.02097 0.01002,0.02505 0.0088,0.05498 -0.0027,0.06651 -0.01153,0.01153 -0.01973,-0.009 -0.01823,-0.04554 z m -14.852067,-0.0347 c 0.0017,-0.04043 0.0099,-0.04865 0.02097,-0.02097 0.01002,0.02505 0.0088,0.05498 -0.0027,0.06651 -0.01153,0.01153 -0.01973,-0.009 -0.01823,-0.04554 z m 4.920389,-0.4222 c -0.04316,-0.05504 -0.04194,-0.05626 0.0131,-0.0131 0.0578,0.04533 0.07619,0.07383 0.04763,0.07383 -0.0072,0 -0.03453,-0.02733 -0.06073,-0.06073 z m 1.59417,0.03702 c 0.02505,-0.01002 0.05498,-0.0088 0.06651,0.0027 0.01153,0.01153 -0.009,0.01973 -0.04555,0.01823 -0.04042,-0.0017 -0.04865,-0.0099 -0.02097,-0.02097 z m 0.428399,-0.358008 c 0,-0.04771 0.0079,-0.06723 0.0175,-0.04338 0.0096,0.02386 0.0096,0.0629 0,0.08675 -0.0096,0.02386 -0.0175,0.0043 -0.0175,-0.04338 z m -4.178285,-0.335291 c 0.02386,-0.0096 0.06289,-0.0096 0.08675,0 0.02386,0.0096 0.0043,0.0175 -0.04338,0.0175 -0.04771,0 -0.06723,-0.0079 -0.04338,-0.0175 z m 0.434424,-0.0011 c 0.03376,-0.0088 0.08061,-0.0082 0.104103,0.0013 0.02349,0.0095 -0.0041,0.0167 -0.06139,0.016 -0.05726,-7.08e-4 -0.07648,-0.0085 -0.04272,-0.01728 z M 66.076284,96.79199 C 65.89181,96.76147 65.622391,96.74822 65.357026,96.75662 l -0.424298,0.01342 0.07467,-0.132853 c 0.122954,-0.218766 0.491352,-0.690038 0.74748,-0.956212 l 0.24018,-0.249599 0.04137,0.266127 c 0.04291,0.276003 0.251561,0.938076 0.33865,1.074573 0.0274,0.04294 0.03774,0.07597 0.02299,0.07339 -0.01475,-0.0026 -0.159557,-0.02664 -0.321785,-0.05348 z m 5.312006,-0.586701 c 0.0017,-0.04042 0.0099,-0.04865 0.02097,-0.02097 0.01002,0.02505 0.0088,0.05498 -0.0027,0.06651 -0.01153,0.01153 -0.01973,-0.009 -0.01823,-0.04555 z m 1.977963,-0.0347 c 0.0017,-0.04042 0.0099,-0.04865 0.02097,-0.02097 0.01002,0.02505 0.0088,0.05498 -0.0027,0.06651 -0.01153,0.01153 -0.01973,-0.009 -0.01823,-0.04555 z M 73.12737,95.826506 c 7.07e-4,-0.05726 0.0085,-0.07648 0.01728,-0.04272 0.0088,0.03376 0.0082,0.08061 -0.0013,0.104103 -0.0095,0.02349 -0.0167,-0.0041 -0.016,-0.06139 z m 0,-0.277609 c 7.07e-4,-0.05726 0.0085,-0.07648 0.01728,-0.04272 0.0088,0.03376 0.0082,0.08061 -0.0013,0.104103 -0.0095,0.02349 -0.0167,-0.0041 -0.016,-0.06139 z m -4.151096,-0.137294 c -0.138555,-0.23565 -0.425388,-0.613085 -0.617922,-0.813104 -0.100459,-0.104364 -0.159229,-0.175418 -0.1306,-0.157897 0.02863,0.01752 0.348746,0.03278 0.711372,0.03392 0.624449,0.002 1.335992,0.08372 1.335992,0.15352 0,0.01218 -0.07417,0.05806 -0.16483,0.10195 -0.234915,0.113733 -0.562364,0.35396 -0.825107,0.605326 l -0.226404,0.2166 z m 2.074795,-0.271573 c -0.176101,-0.307083 -0.18893,-0.29787 0.179119,-0.128636 0.168219,0.07735 0.291511,0.152715 0.273984,0.167479 -0.06627,0.05582 -0.287958,0.213822 -0.298487,0.21274 -0.006,-6.22e-4 -0.07562,-0.113834 -0.154616,-0.251583 z m -5.067501,-0.04225 c 1.53e-4,-0.133599 0.0064,-0.184001 0.01394,-0.112005 0.0075,0.072 0.0074,0.181305 -2.79e-4,0.242908 -0.0077,0.0616 -0.01381,0.0027 -0.01366,-0.130903 z m 6.818221,-0.07576 c 0.02505,-0.01002 0.05498,-0.0088 0.06651,0.0027 0.01153,0.01153 -0.009,0.01973 -0.04554,0.01823 -0.04042,-0.0017 -0.04865,-0.0099 -0.02097,-0.02097 z m -8.026796,-0.3233 c 0.07455,-0.07634 0.143347,-0.138804 0.152889,-0.138804 0.0095,0 -0.04364,0.06246 -0.118188,0.138804 -0.07455,0.07634 -0.143346,0.138805 -0.152889,0.138805 -0.0095,0 0.04364,-0.06246 0.118188,-0.138805 z m 7.783888,0.1151 c 0.02505,-0.01002 0.05498,-0.0088 0.06651,0.0027 0.01153,0.01153 -0.009,0.01973 -0.04555,0.01823 -0.04042,-0.0017 -0.04865,-0.0099 -0.02097,-0.02096 z m -8.287054,-0.368866 c 0,-0.006 0.05075,-0.05672 0.112779,-0.112778 l 0.112778,-0.10192 -0.10192,0.112778 c -0.095,0.105126 -0.123637,0.128729 -0.123637,0.10192 z m 10.651367,-0.778591 -0.119586,-0.130129 0.130129,0.119586 c 0.121122,0.111307 0.146084,0.140672 0.119586,0.140672 -0.0058,0 -0.06436,-0.05856 -0.130129,-0.130129 z m -0.585487,-0.43935 c -0.03131,-0.03772 -0.03029,-0.05493 0.0044,-0.07497 0.02478,-0.0143 0.03348,-0.01322 0.01934,0.0024 -0.01415,0.01562 -0.0083,0.04935 0.01293,0.07496 0.02126,0.02561 0.03084,0.04657 0.0213,0.04657 -0.0095,0 -0.03564,-0.02203 -0.05799,-0.04896 z m -0.16007,-0.160737 c -0.05271,-0.05824 -0.05415,-0.06705 -0.0081,-0.04937 0.03085,0.01184 0.06462,0.04374 0.07504,0.0709 0.02593,0.06756 0.0086,0.06199 -0.06698,-0.02153 z m -5.644082,-0.126315 c 0.02505,-0.01002 0.05498,-0.0088 0.06651,0.0027 0.01153,0.01153 -0.009,0.01973 -0.04555,0.01823 -0.04042,-0.0017 -0.04865,-0.0099 -0.02096,-0.02097 z m -0.173506,-0.520516 c 0.02505,-0.01002 0.05498,-0.0088 0.06651,0.0027 0.01153,0.01153 -0.009,0.01973 -0.04554,0.01823 -0.04042,-0.0017 -0.04865,-0.0099 -0.02097,-0.02097 z m 1.422745,0 c 0.02505,-0.01002 0.05498,-0.0088 0.06651,0.0027 0.01153,0.01153 -0.009,0.01973 -0.04555,0.01823 -0.04042,-0.0017 -0.04865,-0.0099 -0.02097,-0.02097 z m -0.939098,-0.03398 c 0.02386,-0.0096 0.0629,-0.0096 0.08675,0 0.02386,0.0096 0.0043,0.0175 -0.04338,0.0175 -0.04771,0 -0.06723,-0.0079 -0.04338,-0.0175 z m 0.416413,0 c 0.02386,-0.0096 0.0629,-0.0096 0.08675,0 0.02386,0.0096 0.0043,0.0175 -0.04338,0.0175 -0.04771,0 -0.06723,-0.0079 -0.04338,-0.0175 z M 66.301841,91.81853 c -0.01179,-0.01909 -0.0049,-0.0347 0.0153,-0.0347 0.02021,0 0.03675,0.01561 0.03675,0.0347 0,0.01909 -0.0069,0.0347 -0.0153,0.0347 -0.0084,0 -0.02495,-0.01562 -0.03675,-0.0347 z"
         id="path3" /><path
         style="fill:#177551"
         d="m 68.02631,113.80167 c 7.07e-4,-0.0573 0.0085,-0.0765 0.01728,-0.0427 0.0088,0.0338 0.0082,0.0806 -0.0013,0.10411 -0.0095,0.0235 -0.0167,-0.004 -0.016,-0.0614 z m 2.08078,-0.0867 c 0,-0.0477 0.0079,-0.0672 0.0175,-0.0434 0.0096,0.0239 0.0096,0.0629 0,0.0868 -0.0096,0.0239 -0.0175,0.004 -0.0175,-0.0434 z m -0.378516,-1.09966 c 0.0334,-0.009 0.08805,-0.009 0.121454,0 0.0334,0.009 0.0061,0.0159 -0.06073,0.0159 -0.0668,0 -0.09413,-0.007 -0.06073,-0.0159 z m -2.893292,-0.48792 c -0.04316,-0.055 -0.04194,-0.0563 0.0131,-0.0131 0.0334,0.0262 0.06073,0.0535 0.06073,0.0607 0,0.0286 -0.0285,0.0102 -0.07383,-0.0476 z m 0.724474,-0.62157 c 0.02386,-0.01 0.0629,-0.01 0.08675,0 0.02386,0.01 0.0043,0.0175 -0.04338,0.0175 -0.04771,0 -0.06723,-0.008 -0.04338,-0.0175 z m 0.988981,-0.0356 c 0.0334,-0.009 0.08805,-0.009 0.121453,0 0.0334,0.009 0.0061,0.0159 -0.06073,0.0159 -0.0668,0 -0.09413,-0.007 -0.06073,-0.0159 z m 1.127785,-0.0338 c 0.02386,-0.01 0.0629,-0.01 0.08675,0 0.02386,0.01 0.0043,0.0175 -0.04338,0.0175 -0.04771,0 -0.06723,-0.008 -0.04338,-0.0175 z m 0.973799,-0.0354 c 0.02505,-0.01 0.05498,-0.009 0.06651,0.003 0.01153,0.0115 -0.009,0.0197 -0.04554,0.0182 -0.04043,-0.002 -0.04865,-0.01 -0.02097,-0.021 z m -3.159968,-0.24218 c 0.02386,-0.01 0.0629,-0.01 0.08675,0 0.02386,0.01 0.0043,0.0175 -0.04338,0.0175 -0.04771,0 -0.06723,-0.008 -0.04338,-0.0175 z m 4.217906,-0.15053 c 0,-0.10497 0.0065,-0.14791 0.01446,-0.0954 0.008,0.0525 0.008,0.13838 0,0.19086 -0.0079,0.0525 -0.01446,0.01 -0.01446,-0.0954 z m -3.140003,0.1151 c 0.02505,-0.01 0.05498,-0.009 0.06651,0.003 0.01153,0.0115 -0.009,0.0197 -0.04555,0.0182 -0.04042,-0.002 -0.04865,-0.01 -0.02096,-0.021 z m 1.126277,-0.035 c 0.03376,-0.009 0.08061,-0.008 0.104103,0.001 0.02349,0.01 -0.0041,0.0167 -0.06139,0.016 -0.05726,-7.1e-4 -0.07648,-0.008 -0.04272,-0.0173 z m 1.057723,-0.0336 c 0.02386,-0.01 0.0629,-0.01 0.08675,0 0.02386,0.01 0.0043,0.0175 -0.04338,0.0175 -0.04771,0 -0.06723,-0.008 -0.04338,-0.0175 z m -3.695666,-0.62556 c 0.0334,-0.009 0.08805,-0.009 0.121454,0 0.0334,0.009 0.0061,0.0159 -0.06073,0.0159 -0.0668,0 -0.09413,-0.007 -0.06073,-0.0159 z m 1.127785,-0.0338 c 0.02386,-0.01 0.0629,-0.01 0.08675,0 0.02386,0.01 0.0043,0.0175 -0.04338,0.0175 -0.04771,0 -0.06723,-0.008 -0.04338,-0.0175 z m 1.041033,-0.0347 c 0.02386,-0.01 0.0629,-0.01 0.08675,0 0.02386,0.01 0.0043,0.0175 -0.04338,0.0175 -0.04771,0 -0.06723,-0.008 -0.04338,-0.0175 z m 2.482378,-0.13317 c 2.6e-4,-0.0954 0.007,-0.13035 0.01498,-0.0776 0.008,0.0528 0.0078,0.13082 -4.73e-4,0.1735 -0.0082,0.0427 -0.01476,-4.7e-4 -0.0145,-0.0959 z m -1.302541,0.0985 c 0.02386,-0.01 0.0629,-0.01 0.08675,0 0.02386,0.01 0.0043,0.0175 -0.04338,0.0175 -0.04771,0 -0.06723,-0.008 -0.04338,-0.0175 z m -2.23822,-0.27855 c 0.0334,-0.009 0.08805,-0.009 0.121453,0 0.0334,0.009 0.0061,0.0159 -0.06073,0.0159 -0.0668,0 -0.09413,-0.007 -0.06073,-0.0159 z m 1.127785,-0.0338 c 0.02386,-0.01 0.0629,-0.01 0.08675,0 0.02386,0.01 0.0043,0.0175 -0.04338,0.0175 -0.04771,0 -0.06723,-0.008 -0.04338,-0.0175 z m 1.232549,-0.0358 c 0.03376,-0.009 0.08061,-0.008 0.104104,0.001 0.02349,0.01 -0.0041,0.0167 -0.06139,0.016 -0.05726,-7.1e-4 -0.07648,-0.008 -0.04272,-0.0173 z m -4.850138,-0.49806 c -0.09543,-0.0149 -0.305652,-0.0284 -0.467164,-0.0301 l -0.293659,-0.003 0.232932,-0.21743 c 0.354759,-0.33115 0.330867,-0.3568 -0.356986,-0.38329 -1.460364,-0.0562 -2.173031,-0.65294 -3.157593,-2.64383 -0.264278,-0.5344 -0.590481,-1.1395 -0.724897,-1.34467 -0.15004,-0.22901 -0.225475,-0.37303 -0.195392,-0.37303 1.136623,0 2.785029,0.65501 3.624788,1.44034 0.304525,0.28479 0.346303,0.30114 0.445914,0.1745 l 0.06726,-0.0855 0.276469,0.51059 c 0.345903,0.63883 0.55466,1.11525 0.736263,1.68028 0.179484,0.55844 0.177887,0.57308 -0.02886,0.26465 -0.963794,-1.43784 -3.681179,-3.56756 -3.918439,-3.07103 -0.05971,0.12497 0.01394,0.2128 0.323735,0.38605 1.435173,0.80259 2.929106,2.24538 3.657452,3.53224 0.128658,0.22732 0.139305,0.21949 -0.221822,0.16324 z m -0.951736,-1.14608 c 0.167027,-0.16703 0.04008,-0.22173 -0.539887,-0.23264 -0.595245,-0.0112 -0.746262,0.057 -0.553262,0.25005 0.0933,0.0933 0.996832,0.0789 1.093149,-0.0174 z m -1.326838,-1.03519 c 0.236506,-0.0336 0.315368,-0.13975 0.19403,-0.26108 -0.09762,-0.0976 -1.069589,-0.0789 -1.14023,0.0219 -0.153764,0.21953 0.291933,0.33218 0.9462,0.23915 z m 8.892568,1.97084 c 0.671929,-1.19476 1.877223,-2.38368 3.339321,-3.29395 0.714037,-0.44455 0.750963,-0.4847 0.584409,-0.63543 -0.0971,-0.0879 -0.162765,-0.072 -0.50499,0.12178 -1.315534,0.74504 -2.569406,1.84682 -3.370008,2.96124 -0.177571,0.24718 -0.196686,0.2643 -0.174361,0.15616 0.07837,-0.37961 0.680782,-1.76752 1.01297,-2.3338 l 0.137489,-0.23437 0.07556,0.0869 c 0.105224,0.12102 0.11429,0.11743 0.416285,-0.16468 0.798856,-0.74627 2.060826,-1.28259 3.319286,-1.41064 0.402813,-0.041 0.398784,-0.0425 0.286072,0.10707 -0.264829,0.35142 -0.662168,1.08564 -1.179625,2.17977 -0.599636,1.26789 -1.644262,1.99941 -2.901201,2.03161 -0.61917,0.0159 -0.673826,0.10594 -0.256976,0.42349 0.106478,0.0811 0.17191,0.14816 0.145405,0.149 -0.120013,0.004 -0.758697,0.0654 -0.908031,0.0876 l -0.165819,0.0247 z m 2.26081,-0.93958 c 0.07232,-0.0841 0.07406,-0.10171 0.01735,-0.17555 -0.163423,-0.21279 -1.302179,-0.0547 -1.159268,0.16098 0.09737,0.14691 1.018022,0.15867 1.141917,0.0146 z m 1.060463,-1.03746 c 0.1339,-0.0467 0.173328,-0.15164 0.0911,-0.2425 -0.05462,-0.0603 -0.110999,-0.0669 -0.574896,-0.0669 h -0.514338 l -0.05979,0.0913 c -0.140357,0.21421 0.619661,0.37094 1.057926,0.21816 z m -3.902502,1.87675 c 0,-0.16222 0.006,-0.22859 0.01328,-0.14747 0.0073,0.0811 0.0073,0.21384 0,0.29495 -0.0073,0.0811 -0.01328,0.0147 -0.01328,-0.14748 z m -4.323736,0.15053 c 0.02386,-0.01 0.0629,-0.01 0.08675,0 0.02386,0.01 0.0043,0.0175 -0.04338,0.0175 -0.04771,0 -0.06723,-0.008 -0.04338,-0.0175 z m 1.128446,-0.0358 c 0.03376,-0.009 0.08061,-0.008 0.104103,0.001 0.02349,0.009 -0.0041,0.0167 -0.06139,0.016 -0.05726,-7e-4 -0.07648,-0.008 -0.04272,-0.0173 z m 1.145136,-0.0347 c 0.03376,-0.009 0.08061,-0.008 0.104103,0.001 0.02349,0.009 -0.0041,0.0167 -0.06139,0.016 -0.05726,-7e-4 -0.07648,-0.008 -0.04272,-0.0173 z m 1.265929,-0.0336 c 0.02386,-0.01 0.0629,-0.01 0.08675,0 0.02386,0.01 0.0043,0.0175 -0.04338,0.0175 -0.04771,0 -0.06723,-0.008 -0.04338,-0.0175 z m -3.799109,-0.24398 c 0.03376,-0.009 0.08061,-0.008 0.104104,0.001 0.02349,0.01 -0.0041,0.0167 -0.06139,0.016 -0.05726,-7e-4 -0.07648,-0.008 -0.04272,-0.0173 z m 1.353343,-0.0347 c 0.03376,-0.009 0.08061,-0.008 0.104103,0.001 0.02349,0.01 -0.0041,0.0167 -0.06139,0.016 -0.05726,-7e-4 -0.07648,-0.008 -0.04272,-0.0173 z m 1.127125,-0.0336 c 0.02386,-0.01 0.0629,-0.01 0.08675,0 0.02386,0.01 0.0043,0.0175 -0.04338,0.0175 -0.04771,0 -0.06723,-0.008 -0.04338,-0.0175 z m 1.336652,-0.0358 c 0.03376,-0.009 0.08061,-0.008 0.104104,10e-4 0.02349,0.01 -0.0041,0.0167 -0.06139,0.016 -0.05726,-7.1e-4 -0.07648,-0.008 -0.04272,-0.0173 z m 0.765196,-0.77408 c 0,-0.12406 0.0063,-0.17481 0.01399,-0.11278 0.0077,0.062 0.0077,0.16353 0,0.22556 -0.0077,0.062 -0.01399,0.0113 -0.01399,-0.11278 z m -3.888294,0.11476 c 0.03376,-0.009 0.08061,-0.008 0.104103,0.001 0.02349,0.01 -0.0041,0.0167 -0.06139,0.016 -0.05726,-7.1e-4 -0.07648,-0.008 -0.04272,-0.0173 z m 1.318642,-0.0347 c 0.03376,-0.009 0.08061,-0.008 0.104103,0.001 0.02349,0.01 -0.0041,0.0167 -0.06139,0.016 -0.05726,-7.1e-4 -0.07648,-0.008 -0.04272,-0.0173 z m 1.249239,-0.0347 c 0.03376,-0.009 0.08061,-0.008 0.104103,0.001 0.02349,0.01 -0.0041,0.0167 -0.06139,0.016 -0.05726,-7.1e-4 -0.07648,-0.008 -0.04272,-0.0173 z m -2.653125,-0.27727 c 0.02505,-0.01 0.05498,-0.009 0.06651,0.003 0.01153,0.0115 -0.009,0.0197 -0.04555,0.0182 -0.04042,-0.002 -0.04865,-0.01 -0.02097,-0.021 z m 1.334483,-0.035 c 0.03376,-0.009 0.08061,-0.008 0.104104,0.001 0.02349,0.01 -0.0041,0.0167 -0.06139,0.016 -0.05726,-7.1e-4 -0.07648,-0.008 -0.04272,-0.0173 z m 1.353343,-0.0347 c 0.03376,-0.009 0.08061,-0.008 0.104103,0.001 0.02349,0.01 -0.0041,0.0167 -0.06139,0.016 -0.05726,-7.1e-4 -0.07648,-0.008 -0.04272,-0.0173 z m -4.301518,-0.68732 c 1.95e-4,-0.11451 0.0067,-0.15718 0.0144,-0.0948 0.0077,0.0624 0.0076,0.15607 -3.54e-4,0.20821 -0.0079,0.0521 -0.01424,0.001 -0.01404,-0.1134 z m 0.621024,-0.56356 c 0.127993,-0.007 0.346609,-0.007 0.485815,-1e-4 0.139206,0.007 0.03448,0.0121 -0.232714,0.0121 -0.267199,6e-5 -0.381094,-0.005 -0.253101,-0.012 z m 1.287162,-1.7e-4 c 0.167936,-0.006 0.4334,-0.006 0.589919,7e-5 0.156519,0.006 0.01912,0.0116 -0.305339,0.0116 -0.324455,-4e-5 -0.452516,-0.005 -0.28458,-0.0117 z m 1.869934,-9e-5 c 0.318462,-0.006 0.849388,-0.006 1.179837,-3e-5 0.330448,0.006 0.06989,0.0104 -0.579022,0.0104 -0.64891,1e-5 -0.919277,-0.005 -0.600815,-0.0104 z m 1.798003,-0.0218 c 0,-0.007 0.02733,-0.0345 0.06073,-0.0607 0.05504,-0.0432 0.05626,-0.0419 0.0131,0.0131 -0.04533,0.0578 -0.07383,0.0762 -0.07383,0.0476 z m -2.356935,-0.0765 c 0.0017,-0.0404 0.0099,-0.0486 0.02097,-0.021 0.01002,0.025 0.0088,0.055 -0.0027,0.0665 -0.01153,0.0115 -0.01973,-0.009 -0.01823,-0.0455 z m 0.006,-0.27472 c 3.85e-4,-0.0763 0.0075,-0.10349 0.01579,-0.0603 0.0083,0.0432 0.008,0.10563 -7e-4,0.1388 -0.0087,0.0332 -0.01548,-0.002 -0.01509,-0.0785 z m -3.1585,-0.15615 c 0,-0.0668 0.0071,-0.0941 0.01587,-0.0607 0.0087,0.0334 0.0087,0.088 0,0.12145 -0.0087,0.0334 -0.01587,0.006 -0.01587,-0.0607 z m 5.761782,-0.0347 c 0,-0.0859 0.0068,-0.12102 0.01504,-0.0781 0.0083,0.0429 0.0083,0.11321 0,0.15615 -0.0083,0.0429 -0.01504,0.008 -0.01504,-0.0781 z m -6.28761,-0.0896 c 0.0017,-0.0404 0.0099,-0.0487 0.02097,-0.021 0.01002,0.025 0.0088,0.055 -0.0027,0.0665 -0.01153,0.0115 -0.01973,-0.009 -0.01823,-0.0455 z m 4.716609,0.007 c 0,-0.007 0.02733,-0.0345 0.06073,-0.0607 0.05504,-0.0432 0.05626,-0.0419 0.0131,0.0131 -0.04533,0.0578 -0.07383,0.0762 -0.07383,0.0476 z m 1.567028,-0.36861 c 0,-0.0477 0.0079,-0.0672 0.0175,-0.0434 0.0096,0.0239 0.0096,0.0629 0,0.0868 -0.0096,0.0239 -0.0175,0.004 -0.0175,-0.0434 z m 0.827347,-1.71345 c 0,-0.007 0.02733,-0.0345 0.06073,-0.0607 0.05504,-0.0432 0.05627,-0.0419 0.0131,0.0131 -0.04533,0.0578 -0.07383,0.0762 -0.07383,0.0476 z m -4.754049,-0.0325 c 0,-0.006 0.05075,-0.0567 0.112779,-0.11278 l 0.112778,-0.10192 -0.10192,0.11278 c -0.095,0.10512 -0.123637,0.12873 -0.123637,0.10192 z m 3.513561,-0.2147 c 3.85e-4,-0.0763 0.0075,-0.10349 0.01579,-0.0603 0.0083,0.0432 0.008,0.10562 -7e-4,0.1388 -0.0087,0.0332 -0.01548,-0.002 -0.01509,-0.0785 z m 1.483396,-0.0282 c 0,-0.006 0.05075,-0.0567 0.112779,-0.11278 l 0.112778,-0.10192 -0.10192,0.11278 c -0.095,0.10513 -0.123637,0.12873 -0.123637,0.10192 z m -1.484096,-0.33615 c 0,-0.0668 0.0071,-0.0941 0.01587,-0.0607 0.0087,0.0334 0.0087,0.0881 0,0.12145 -0.0087,0.0334 -0.01587,0.006 -0.01587,-0.0607 z m 2.039313,-0.26026 c 0.04483,-0.0477 0.08931,-0.0867 0.09885,-0.0867 0.0095,0 -0.01932,0.039 -0.06415,0.0867 -0.04483,0.0477 -0.08931,0.0867 -0.09885,0.0867 -0.0095,0 0.01932,-0.039 0.06415,-0.0867 z m -2.079325,-0.0723 c 0.0017,-0.0404 0.0099,-0.0487 0.02096,-0.021 0.01002,0.0251 0.0088,0.055 -0.0027,0.0665 -0.01153,0.0115 -0.01973,-0.009 -0.01823,-0.0455 z m 2.287532,-0.16637 c 0,-0.007 0.02733,-0.0345 0.06073,-0.0607 0.05504,-0.0432 0.05626,-0.0419 0.0131,0.0131 -0.04533,0.0578 -0.07383,0.0762 -0.07383,0.0476 z m -1.01409,-0.047 c 0.08162,-0.007 0.206543,-0.007 0.277609,2.3e-4 0.07107,0.007 0.0043,0.0134 -0.148397,0.0133 -0.152685,-1.3e-4 -0.21083,-0.006 -0.129212,-0.0136 z m 0.660573,-0.0329 c 0.02505,-0.01 0.05498,-0.009 0.06651,0.003 0.01153,0.0115 -0.009,0.0197 -0.04555,0.0182 -0.04042,-0.002 -0.04865,-0.01 -0.02096,-0.021 z m -8.397664,-0.86753 c 0.02505,-0.01 0.05498,-0.009 0.06651,0.003 0.01153,0.0115 -0.009,0.0197 -0.04554,0.0182 -0.04042,-0.002 -0.04865,-0.01 -0.02097,-0.021 z m 0.536358,-3.4e-4 c 0.03376,-0.009 0.08061,-0.008 0.104104,0.001 0.02349,0.01 -0.0041,0.0167 -0.06139,0.016 -0.05726,-7.1e-4 -0.07648,-0.008 -0.04272,-0.0173 z m 0.01886,-0.34667 c 0.02505,-0.01 0.05498,-0.009 0.06651,0.003 0.01153,0.0115 -0.009,0.0197 -0.04555,0.0182 -0.04042,-0.002 -0.04865,-0.01 -0.02097,-0.021 z M 77.0961,100.85118 c -0.01883,-0.0495 -0.01485,-0.0534 0.01943,-0.0194 0.02371,0.0235 0.03438,0.0515 0.02369,0.0622 -0.01068,0.0107 -0.03009,-0.009 -0.04312,-0.0428 z m -3.614441,-0.29646 -0.0661,-0.0781 0.07808,0.0661 c 0.04294,0.0363 0.07808,0.0715 0.07808,0.0781 0,0.0278 -0.02793,0.007 -0.09005,-0.0661 z m -0.203428,-0.16243 c -0.01098,-0.0178 -0.0067,-0.0405 0.0095,-0.0505 0.01622,-0.01 0.02948,0.005 0.02948,0.0323 0,0.0585 -0.01094,0.0636 -0.039,0.0182 z m -4.812009,-0.23663 c -0.04316,-0.055 -0.04194,-0.0563 0.0131,-0.0131 0.0578,0.0453 0.07619,0.0738 0.04763,0.0738 -0.0072,0 -0.03453,-0.0273 -0.06073,-0.0607 z m 6.600373,-0.202426 c 0.0017,-0.04042 0.0099,-0.04865 0.02097,-0.02097 0.01002,0.02505 0.0088,0.05498 -0.0027,0.06651 -0.01153,0.01153 -0.01973,-0.009 -0.01823,-0.04554 z m -0.349751,-0.374572 c 0,-0.0072 0.02733,-0.03453 0.06073,-0.06073 0.05504,-0.04316 0.05627,-0.04194 0.0131,0.0131 -0.04533,0.0578 -0.07383,0.07619 -0.07383,0.04763 z m 0.424464,-0.229806 c 0,-0.0668 0.0071,-0.09413 0.01587,-0.06073 0.0087,0.0334 0.0087,0.08805 0,0.121453 -0.0087,0.0334 -0.01587,0.0061 -0.01587,-0.06073 z m -12.150693,0.01446 c 0.0017,-0.04042 0.0099,-0.04865 0.02097,-0.02096 0.01002,0.02505 0.0088,0.05498 -0.0027,0.06651 -0.01153,0.01153 -0.01973,-0.009 -0.01823,-0.04555 z M 62.47285,99.105759 c 0,-0.04771 0.0079,-0.06723 0.0175,-0.04338 0.0096,0.02386 0.0096,0.0629 0,0.08675 -0.0096,0.02386 -0.0175,0.0043 -0.0175,-0.04338 z M 77.400735,98.8108 c 1.26e-4,-0.152685 0.0062,-0.210831 0.01356,-0.129212 0.0073,0.08162 0.0072,0.206542 -2.3e-4,0.277608 -0.0075,0.07107 -0.01345,0.0043 -0.01333,-0.148396 z m 0.138016,-0.01735 c 0,-0.124056 0.0063,-0.174807 0.01399,-0.112779 0.0077,0.06203 0.0077,0.163529 0,0.225558 -0.0077,0.06203 -0.01399,0.01128 -0.01399,-0.112779 z m -2.395557,-0.156155 c 2.6e-4,-0.09543 0.007,-0.130348 0.01498,-0.0776 0.008,0.05275 0.0078,0.130825 -4.73e-4,0.173505 -0.0082,0.04268 -0.01476,-4.77e-4 -0.0145,-0.09591 z m -0.187857,0.02603 c -0.04316,-0.05504 -0.04194,-0.05626 0.0131,-0.0131 0.0334,0.02619 0.06073,0.05352 0.06073,0.06073 0,0.02856 -0.0285,0.01018 -0.07383,-0.04762 z m 0.14871,-0.45979 c 0,-0.04771 0.0079,-0.06723 0.0175,-0.04338 0.0096,0.02386 0.0096,0.0629 0,0.08675 -0.0096,0.02386 -0.0175,0.0043 -0.0175,-0.04338 z m -1.816443,-0.231911 c 0.02505,-0.01002 0.05498,-0.0088 0.06651,0.0027 0.01153,0.01153 -0.009,0.01973 -0.04554,0.01822 -0.04042,-0.0017 -0.04865,-0.0099 -0.02097,-0.02096 z m 3.987805,-0.568995 c 0.01227,-0.04692 0.028,-0.06265 0.03666,-0.03666 0.0083,0.02504 -0.0013,0.06202 -0.02149,0.08218 -0.02575,0.02575 -0.03027,0.0122 -0.01517,-0.04552 z m -7.83038,-0.121564 c 0.0017,-0.04042 0.0099,-0.04865 0.02097,-0.02096 0.01002,0.02505 0.0088,0.05498 -0.0027,0.06651 -0.01153,0.01153 -0.01973,-0.009 -0.01823,-0.04555 z m 7.807746,-0.0347 c 0.0017,-0.04042 0.0099,-0.04865 0.02097,-0.02097 0.01002,0.02505 0.0088,0.05498 -0.0027,0.06651 -0.01153,0.01153 -0.01973,-0.009 -0.01823,-0.04555 z m -8.015952,-0.208207 c 0.0017,-0.04042 0.0099,-0.04865 0.02097,-0.02096 0.01002,0.02505 0.0088,0.05498 -0.0027,0.06651 -0.01153,0.01153 -0.01973,-0.009 -0.01823,-0.04555 z m -3.167045,-0.24637 c 0.02505,-0.01002 0.05498,-0.0088 0.06651,0.0027 0.01153,0.01153 -0.009,0.01973 -0.04554,0.01823 -0.04042,-0.0017 -0.04865,-0.0099 -0.02097,-0.02097 z m -0.921748,-0.03492 c 0.0334,-0.0087 0.08805,-0.0087 0.121454,0 0.0334,0.0087 0.0061,0.01587 -0.06073,0.01587 -0.0668,0 -0.09413,-0.0071 -0.06073,-0.01587 z m 0.590579,-1.27e-4 c 0.03376,-0.0088 0.08061,-0.0082 0.104103,0.0013 0.02349,0.0095 -0.0041,0.0167 -0.06139,0.016 -0.05726,-7.07e-4 -0.07648,-0.0085 -0.04272,-0.01728 z m 7.630383,-0.704675 c 0,-0.04771 0.0079,-0.06723 0.0175,-0.04338 0.0096,0.02386 0.0096,0.0629 0,0.08675 -0.0096,0.02386 -0.0175,0.0043 -0.0175,-0.04338 z m 0,-0.555218 c 0,-0.04771 0.0079,-0.06723 0.0175,-0.04338 0.0096,0.02386 0.0096,0.0629 0,0.08675 -0.0096,0.02386 -0.0175,0.0043 -0.0175,-0.04338 z M 69.232633,95.38407 c 0.1438,-0.153212 0.174956,-0.180761 0.174956,-0.154705 0,0.0056 -0.07417,0.07974 -0.164831,0.16483 l -0.16483,0.154705 z m 4.098918,-0.219774 c 0.0017,-0.04042 0.0099,-0.04865 0.02097,-0.02097 0.01002,0.02505 0.0088,0.05498 -0.0027,0.06651 -0.01153,0.01153 -0.01973,-0.009 -0.01823,-0.04555 z m 0.288923,-0.196639 -0.06611,-0.07808 0.07808,0.0661 c 0.04294,0.03636 0.07808,0.07149 0.07808,0.07808 0,0.02777 -0.02793,0.0073 -0.09005,-0.06611 z m -9.071038,-0.03913 c 0,-0.0072 0.02733,-0.03453 0.06073,-0.06073 0.05504,-0.04316 0.05626,-0.04194 0.0131,0.0131 -0.04533,0.0578 -0.07383,0.07619 -0.07383,0.04763 z m 6.311172,-0.04763 c -0.04316,-0.05504 -0.04194,-0.05626 0.0131,-0.0131 0.0334,0.02619 0.06073,0.05352 0.06073,0.06073 0,0.02856 -0.0285,0.01018 -0.07383,-0.04763 z m -0.188613,-0.190856 -0.10192,-0.112778 0.112779,0.10192 c 0.105125,0.095 0.128729,0.123637 0.10192,0.123637 -0.006,0 -0.05672,-0.05075 -0.112779,-0.112779 z m 2.444184,-0.225557 c -0.04316,-0.05504 -0.04194,-0.05626 0.0131,-0.0131 0.0578,0.04533 0.07618,0.07383 0.04762,0.07383 -0.0072,0 -0.03453,-0.02733 -0.06073,-0.06073 z m 1.798273,-0.651742 c -0.05355,-0.04711 -0.0836,-0.08566 -0.06678,-0.08566 0.01682,0 0.06726,0.03904 0.112087,0.08675 0.103709,0.110392 0.08079,0.109837 -0.04531,-0.0011 z M 74.59405,93.447988 c -0.05271,-0.05824 -0.05415,-0.06705 -0.0081,-0.04937 0.03085,0.01184 0.06462,0.04374 0.07504,0.0709 0.02593,0.06756 0.0086,0.06199 -0.06698,-0.02153 z m -0.173581,-0.13962 c -0.03561,-0.05761 -0.0036,-0.0656 0.04617,-0.01154 0.02461,0.0267 0.02944,0.04855 0.01072,0.04855 -0.01871,0 -0.04431,-0.01666 -0.05689,-0.03701 z m -4.533572,-0.333706 c 0.02505,-0.01002 0.05498,-0.0088 0.06651,0.0027 0.01153,0.01153 -0.009,0.01973 -0.04554,0.01823 -0.04042,-0.0017 -0.04865,-0.0099 -0.02097,-0.02097 z m -0.314478,-0.03398 c 0.02386,-0.0096 0.0629,-0.0096 0.08675,0 0.02386,0.0096 0.0043,0.0175 -0.04338,0.0175 -0.04771,0 -0.06723,-0.0079 -0.04338,-0.0175 z m -0.676671,-0.03657 c 0.05249,-0.008 0.13837,-0.008 0.190856,0 0.05249,0.008 0.0095,0.01446 -0.09543,0.01446 -0.104971,0 -0.147914,-0.0065 -0.09543,-0.01446 z m 0.121453,-0.520151 c 0.04294,-0.0083 0.113213,-0.0083 0.156155,0 0.04294,0.0083 0.0078,0.01504 -0.07808,0.01504 -0.08589,0 -0.12102,-0.0068 -0.07808,-0.01504 z"
         id="path2" /><path
         style="fill:#043733"
         d="m 68.085601,113.94915 c -0.0018,-0.005 -0.02136,-0.0939 -0.04338,-0.19798 -0.03719,-0.17587 -0.05747,-0.20341 -0.286008,-0.38838 -0.135288,-0.1095 -0.306259,-0.28661 -0.379936,-0.39358 -0.100129,-0.14539 -0.186305,-0.22241 -0.341248,-0.30499 -0.703726,-0.37508 -0.889347,-0.78398 -0.889347,-1.9591 v -0.73964 l -0.08012,-0.0305 c -0.173437,-0.0659 -0.662203,-0.11733 -1.307921,-0.13752 l -0.676672,-0.0212 -0.01088,-0.0944 c -0.0094,-0.0817 0.02242,-0.11865 0.238398,-0.27623 l 0.249274,-0.18188 -0.290449,-0.0483 c -1.204074,-0.20022 -2.086001,-0.96293 -2.776165,-2.40087 -0.535923,-1.11659 -0.835229,-1.65174 -1.242056,-2.22075 -0.322698,-0.45135 -0.305631,-0.47067 0.389113,-0.44052 1.4126,0.0613 2.927833,0.61137 3.800698,1.3797 l 0.153209,0.13486 0.07531,-0.11175 c 0.08964,-0.13302 0.181222,-0.1595 0.248664,-0.0719 0.246812,0.32057 1.004951,1.7346 1.11187,2.07379 0.08975,0.2847 0.117727,0.23902 0.117727,-0.19224 v -0.38575 l -0.183611,-0.19832 c -0.231228,-0.24976 -0.271561,-0.38245 -0.284784,-0.93692 -0.01857,-0.77883 -0.144844,-1.00735 -1.180274,-2.13594 -2.693473,-2.93581 -2.705738,-6.813848 -0.02969,-9.387587 4.593154,-4.417554 12.204006,-0.445022 11.1197,5.803997 -0.235477,1.35709 -0.708084,2.23642 -1.901854,3.53859 -0.596268,0.65041 -0.821015,0.93073 -0.952746,1.1883 -0.187086,0.36582 -0.210043,0.46333 -0.233684,0.99259 -0.02564,0.57402 -0.104115,0.80733 -0.335773,0.99828 l -0.120397,0.0992 0.0098,0.41331 0.0098,0.41331 0.118569,-0.29496 c 0.224256,-0.55787 0.91412,-1.82342 1.094337,-2.00755 0.06479,-0.0662 0.166674,-0.0235 0.239992,0.10064 l 0.06252,0.10583 0.15343,-0.14142 c 0.859533,-0.79229 2.799563,-1.43964 4.143216,-1.3825 0.339495,0.0144 0.344724,0.0486 0.06678,0.43705 -0.408764,0.5712 -0.696548,1.06741 -1.12976,1.94795 -0.878387,1.78542 -1.675029,2.49468 -3.030947,2.69848 l -0.190419,0.0286 0.173887,0.11135 c 0.583653,0.37376 0.508484,0.44954 -0.46972,0.47351 -0.399587,0.01 -0.756611,0.0381 -0.945605,0.0749 l -0.303634,0.0592 v 0.72323 c 0,1.18775 -0.197112,1.63826 -0.860981,1.96785 -0.148354,0.0737 -0.247384,0.15127 -0.30696,0.24057 -0.124793,0.18706 -0.346651,0.40898 -0.515668,0.51582 -0.171019,0.1081 -0.256551,0.23853 -0.25239,0.38487 0.0054,0.18926 0.02672,0.18543 -1.032993,0.18543 -0.542813,0 -0.988439,-0.004 -0.990279,-0.009 z m 2.293618,-1.39436 c 0.801439,-0.1917 1.2355,-0.59604 1.312509,-1.22266 0.02458,-0.20004 0.02954,-1.98596 0.01089,-3.92414 l -0.0048,-0.49449 H 69.094345 66.49083 l 0.0096,2.351 0.0096,2.351 0.09221,0.17469 c 0.224189,0.42469 0.655924,0.71762 1.200866,0.81479 0.322373,0.0575 2.285886,0.0192 2.576091,-0.0502 z m -3.501527,-1.1165 c -0.06839,-0.0869 -0.05889,-0.18378 0.02293,-0.23377 0.01421,-0.009 0.572382,-0.0336 1.240378,-0.0554 0.667996,-0.0218 1.628065,-0.054 2.133486,-0.0716 1.006573,-0.0351 1.076365,-0.025 1.076365,0.15587 0,0.13764 -0.07,0.14825 -1.249545,0.18928 -0.620114,0.0216 -1.533483,0.0542 -2.029708,0.0726 -1.201677,0.0444 -1.110709,0.0488 -1.193905,-0.057 z m 0.0054,-1.05754 c -0.05121,-0.054 -0.05565,-0.16689 -0.0094,-0.24004 0.02721,-0.0431 0.187405,-0.056 0.927723,-0.0747 0.49216,-0.0125 1.485799,-0.0409 2.208086,-0.0631 1.423098,-0.0438 1.445487,-0.0416 1.445487,0.14246 0,0.14681 -0.09218,0.15925 -1.492147,0.20133 -2.645237,0.0795 -3.032588,0.0838 -3.079722,0.0341 z m 0.0347,-1.0902 c -0.08876,-0.0637 -0.102777,-0.19658 -0.02734,-0.25919 0.03557,-0.0295 0.385645,-0.0517 1.171162,-0.074 3.616438,-0.10305 3.330151,-0.10618 3.375564,0.0369 0.06967,0.21951 0.12366,0.21313 -2.359247,0.27857 -0.725253,0.0191 -1.490412,0.0435 -1.700353,0.0543 -0.317595,0.0162 -0.394827,0.0101 -0.45979,-0.0365 z m -0.02355,-1.11293 c -0.07288,-0.0729 -0.06925,-0.21276 0.0066,-0.25334 0.03361,-0.018 1.042419,-0.0585 2.241808,-0.0901 2.376609,-0.0626 2.312336,-0.066 2.312336,0.12495 0,0.15459 -0.04545,0.15902 -2.23822,0.21804 -2.489999,0.067 -2.255975,0.067 -2.322495,4.6e-4 z m -0.995195,1.13893 c -0.728346,-1.28686 -2.222279,-2.72965 -3.657452,-3.53224 -0.30979,-0.17325 -0.383448,-0.26108 -0.323735,-0.38605 0.23726,-0.49653 2.954645,1.63319 3.918439,3.07103 0.206747,0.30843 0.208344,0.29379 0.02886,-0.26465 -0.181603,-0.56503 -0.39036,-1.04145 -0.736263,-1.68028 l -0.276469,-0.51059 -0.06726,0.0855 c -0.09961,0.12664 -0.141389,0.11029 -0.445914,-0.1745 -0.839759,-0.78533 -2.488165,-1.44034 -3.624788,-1.44034 -0.03008,0 0.04535,0.14402 0.195392,0.37303 0.134416,0.20517 0.460619,0.81027 0.724897,1.34467 0.984562,1.99089 1.697229,2.5876 3.157593,2.64383 0.687853,0.0265 0.711745,0.0521 0.356986,0.38329 l -0.232932,0.21743 0.293659,0.003 c 0.161512,0.002 0.371736,0.0152 0.467164,0.0301 0.361127,0.0563 0.35048,0.0641 0.221822,-0.16324 z m -2.266707,-0.96543 c -0.193,-0.193 -0.04198,-0.26125 0.553262,-0.25005 0.57997,0.0109 0.706914,0.0656 0.539887,0.23264 -0.09632,0.0963 -0.999853,0.11071 -1.093149,0.0174 z m -1.057075,-1.05136 c -0.13237,-0.0371 -0.188402,-0.14675 -0.122814,-0.24039 0.07064,-0.10085 1.042613,-0.11955 1.14023,-0.0219 0.121338,0.12133 0.04248,0.22745 -0.19403,0.26108 -0.22646,0.0322 -0.710252,0.0329 -0.823386,10e-4 z m 10.250385,2.14596 c 0.190856,-0.0169 0.368697,-0.0314 0.395201,-0.0322 0.02651,-8.4e-4 -0.03893,-0.0679 -0.145405,-0.149 -0.41685,-0.31755 -0.362194,-0.40762 0.256976,-0.42349 1.256939,-0.0322 2.301565,-0.76372 2.901201,-2.03161 0.517457,-1.09413 0.914796,-1.82835 1.179625,-2.17977 0.112712,-0.14957 0.116741,-0.14806 -0.286072,-0.10707 -1.25846,0.12805 -2.52043,0.66437 -3.319286,1.41064 -0.301995,0.28211 -0.311061,0.2857 -0.416285,0.16468 l -0.07556,-0.0869 -0.137489,0.23437 c -0.332188,0.56628 -0.934603,1.95419 -1.01297,2.3338 -0.02233,0.10814 -0.0032,0.091 0.174361,-0.15616 0.800602,-1.11442 2.054474,-2.2162 3.370008,-2.96124 0.342225,-0.19382 0.40789,-0.20965 0.50499,-0.12178 0.166554,0.15073 0.129628,0.19088 -0.584409,0.63543 -1.462098,0.91027 -2.667392,2.09919 -3.339321,3.29395 l -0.144218,0.25643 0.165819,-0.0247 c 0.0912,-0.0136 0.321974,-0.0385 0.51283,-0.0554 z m 0.732864,-1.03383 c -0.156287,-0.0369 -0.213697,-0.149 -0.129469,-0.25284 0.130406,-0.16077 1.183711,-0.0932 1.183711,0.0759 0,0.14545 -0.694101,0.26195 -1.054242,0.17696 z m 1.031888,-1.16423 c -0.09356,-0.0805 -0.09433,-0.0842 -0.03584,-0.1735 l 0.05979,-0.0913 h 0.514338 c 0.558483,0 0.666588,0.0357 0.613557,0.20282 -0.05357,0.16879 -0.970313,0.21808 -1.151849,0.0619 z m -5.703326,-1.77703 v -1.09586 l -0.104302,-0.29551 c -0.05737,-0.16253 -0.13236,-0.43439 -0.166652,-0.60413 l -0.06235,-0.30862 -0.132195,0.17335 c -0.485437,0.63654 -1.705563,1.38293 -2.269005,1.38801 -0.145185,0.001 -0.160717,0.051 -0.08289,0.26514 0.105973,0.29161 0.155685,0.62148 0.130855,0.8683 -0.02653,0.26374 0.03866,0.45002 0.210211,0.60064 l 0.11907,0.10454 h 1.17863 1.178629 z m 2.806913,1.06324 c 0.188452,-0.10086 0.259806,-0.29795 0.268769,-0.74239 0.01908,-0.94596 0.252516,-1.36727 1.502886,-2.71245 0.195146,-0.20994 0.384741,-0.42317 0.421322,-0.47385 l 0.06651,-0.0921 -0.199553,0.0564 c -0.562403,0.15904 -1.654952,0.0607 -2.197589,-0.19771 -0.139977,-0.0667 -0.203464,-0.0836 -0.190911,-0.0509 0.41453,1.08025 0.07915,2.50938 -0.795873,3.39142 -0.393443,0.3966 -0.470454,0.36893 -1.099673,-0.39509 l -0.12857,-0.15611 -0.0016,0.7027 -0.0016,0.70269 h 1.147418 c 0.649958,0 1.173848,-0.0141 1.208381,-0.0326 z m -1.323793,-1.12659 c 1.000503,-1.09471 1.081054,-2.63455 0.199278,-3.80945 -0.226861,-0.30228 -0.551219,-0.59948 -0.621095,-0.5691 -0.02069,0.009 -0.103198,0.0345 -0.183349,0.0567 -0.141517,0.0392 -0.14603,0.0449 -0.156155,0.19879 -0.01344,0.20417 -0.07505,0.22182 -0.164222,0.047 -0.131809,-0.25836 -0.199878,-0.23086 -0.359862,0.14541 -0.558942,1.3146 -0.292236,2.6283 0.780813,3.84603 0.285127,0.32357 0.286034,0.32372 0.504592,0.0846 z m -4.01017,-0.99245 c 0.990482,-0.33185 2.178662,-1.34024 2.180583,-1.85064 9.39e-4,-0.24955 0.130104,-0.7713 0.262824,-1.06164 0.172235,-0.37679 0.02206,-0.56556 -0.208963,-0.26267 -0.145129,0.19027 -0.243124,0.16828 -0.217416,-0.0488 0.01982,-0.16732 0.01787,-0.17175 -0.113946,-0.25898 l -0.134108,-0.0888 -0.07091,0.12017 c -0.04393,0.0745 -0.09775,0.12018 -0.141478,0.12018 -0.08934,0 -0.08956,-0.0517 -6.84e-4,-0.16465 0.09483,-0.12057 0.05563,-0.14535 -0.06157,-0.0389 -0.133341,0.12106 -0.644461,0.42407 -0.950844,0.5637 -0.664101,0.30264 -1.270469,1.85039 -1.106284,2.82379 0.05137,0.30456 0.07482,0.31069 0.562797,0.14721 z m -0.739811,-1.34991 c 0.118026,-0.46673 0.30108,-0.87842 0.578821,-1.30176 l 0.06649,-0.10134 -0.120643,0.0244 c -0.84178,0.17052 -1.684075,0.061 -2.388805,-0.31069 -0.159611,-0.0842 -0.296403,-0.15304 -0.303983,-0.15304 -0.03455,0 0.312947,0.63873 0.500291,0.91957 0.223149,0.33453 0.308936,0.44032 0.876116,1.08047 0.201195,0.22707 0.435428,0.50518 0.520516,0.61801 l 0.154707,0.20515 0.02361,-0.35345 c 0.01299,-0.1944 0.05478,-0.47671 0.09288,-0.62736 z m 8.185741,-0.74729 c 0.293166,-0.0695 0.291892,-0.0662 0.179918,-0.47023 -0.139724,-0.50421 -0.448224,-0.9787 -0.835207,-1.2846 l -0.165281,-0.13064 -0.513632,0.0173 c -0.682356,0.0229 -1.011904,-0.0552 -1.494257,-0.35414 l -0.1478,-0.0916 -0.03076,0.0802 c -0.02545,0.0664 -0.01341,0.0941 0.06972,0.16082 0.184885,0.14829 0.100853,0.27938 -0.105742,0.16496 -0.110208,-0.061 -0.394455,0.25181 -0.307655,0.33861 0.02575,0.0258 0.200682,0.27533 0.388732,0.55461 0.368425,0.54717 0.442144,0.61481 0.889592,0.81623 0.613336,0.27609 1.419278,0.35328 2.072369,0.19849 z m 0.771181,-0.79334 c 0.315803,-0.66581 0.482407,-1.24435 0.559341,-1.942313 0.04649,-0.421771 0.03606,-0.4588 -0.0878,-0.311606 -0.325955,0.387376 -1.017469,0.811719 -1.730767,1.062069 -0.05258,0.0185 -0.02833,0.0541 0.147011,0.21649 0.115483,0.10691 0.278808,0.29831 0.362945,0.42532 0.210508,0.31777 0.318633,0.5824 0.418961,1.02536 l 0.02274,0.10042 0.05341,-0.0763 c 0.02938,-0.0419 0.143745,-0.2667 0.254152,-0.49948 z m -8.396746,-0.19991 c 0.512681,-0.12926 1.020243,-0.4032 1.430103,-0.77185 l 0.128811,-0.11586 -0.07268,-0.14689 c -0.0537,-0.10853 -0.08733,-0.14108 -0.128811,-0.12464 -0.279516,0.11081 -0.379253,0.005 -0.140668,-0.1498 l 0.122729,-0.07942 -0.03221,-0.215551 -0.03221,-0.215551 -0.68091,-0.0018 c -0.625776,-0.0017 -0.708586,-0.0093 -1.022699,-0.09431 l -0.341789,-0.0925 -0.208387,0.08468 c -0.512808,0.208373 -1.046442,0.582416 -1.463687,1.025952 -0.318878,0.33897 -0.318584,0.33579 -0.0474,0.51223 0.707827,0.46055 1.62714,0.60282 2.489803,0.38531 z m 3.281555,-0.38248 c 0.993119,-0.18192 1.518949,-1.32499 1.009453,-2.194378 -0.743958,-1.26947 -2.723451,-0.841359 -2.792553,0.603954 -0.04926,1.030264 0.783967,1.773444 1.7831,1.590424 z m -0.515271,-0.51869 c -0.5416,-0.13575 -0.875725,-0.762911 -0.66088,-1.240488 l 0.05804,-0.129015 0.02295,0.208207 c 0.119818,1.087116 1.572039,1.047486 1.577435,-0.04306 0.0014,-0.281998 0.07579,-0.26211 0.161057,0.04306 0.192603,0.689328 -0.454373,1.337816 -1.158598,1.161296 z m 1.328445,0.45435 c 0,-0.018 -0.01562,-0.0423 -0.0347,-0.0541 -0.01909,-0.0118 -0.0347,0.003 -0.0347,0.0327 0,0.0297 0.01561,0.0541 0.0347,0.0541 0.01909,0 0.0347,-0.0147 0.0347,-0.0327 z m -6.663881,-0.67332 c 0.29121,-0.304933 0.772324,-0.670111 1.142764,-0.867392 l 0.291315,-0.155143 -0.152511,-0.07674 c -0.591466,-0.29761 -1.099969,-0.692713 -1.447452,-1.124659 -0.268911,-0.334276 -0.268798,-0.361554 0.0023,-0.561419 0.778918,-0.574196 1.784303,-0.778703 2.860945,-0.581951 l 0.110883,0.02026 -0.102165,-0.243158 c -0.387626,-0.922578 -0.407761,-2.063632 -0.0502,-2.844657 0.04771,-0.104218 0.08675,-0.194917 0.08675,-0.201554 0,-0.06607 -0.963177,0.586571 -1.314689,0.890825 -1.697807,1.469551 -2.477508,4.045176 -1.83669,6.067228 l 0.03766,0.11884 0.07212,-0.10149 c 0.03966,-0.0558 0.174189,-0.20836 0.298945,-0.33899 z m 9.133389,-0.004 c 0.757707,-0.13213 1.441299,-0.462253 1.972231,-0.952425 l 0.190856,-0.176204 -0.149035,-0.132522 c -0.924611,-0.82216 -2.588318,-0.839568 -3.522656,-0.03686 -0.162037,0.13921 -0.164668,0.144501 -0.09065,0.182295 0.115431,0.05894 0.09921,0.101038 -0.07026,0.18235 -0.17155,0.08231 -0.204078,0.136835 -0.207644,0.34805 l -0.0024,0.144465 0.253868,0.136934 c 0.607266,0.327557 1.03337,0.407217 1.625722,0.303917 z m -5.568383,-0.908498 0.284482,-0.02215 0.0379,-0.176712 c 0.03,-0.139897 0.02857,-0.179778 -0.0069,-0.191429 -0.06456,-0.02122 -0.270328,-0.2326 -0.270328,-0.277701 0,-0.05406 0.119177,-0.0473 0.268871,0.01524 0.123067,0.05142 0.130126,0.05045 0.189168,-0.02603 0.08726,-0.11303 0.114695,-0.212406 0.06336,-0.229518 -0.151785,-0.0506 -0.666823,-0.55564 -0.949481,-0.931058 -0.194315,-0.258083 -0.228121,-0.274876 -0.698711,-0.347073 -0.838895,-0.1287 -1.641934,0.03326 -2.316985,0.467287 -0.256902,0.165178 -0.253114,0.189438 0.07914,0.506873 0.678223,0.64797 1.51011,1.025335 2.670617,1.211458 0.147349,0.02363 0.352331,0.02389 0.648843,8.02e-4 z m 4.055474,-0.818219 c 0.235639,-0.135678 0.692337,-0.344282 0.89302,-0.407901 0.713236,-0.226102 1.449834,-3.055321 0.795118,-3.05399 -0.414164,8.42e-4 -1.046014,0.193569 -1.38234,0.421642 -0.266895,0.180989 -0.268531,0.184761 -0.197264,0.454879 0.221667,0.840166 -0.115928,2.075144 -0.681586,2.493353 -0.130812,0.09671 -0.130801,0.09737 0.0051,0.290122 l 0.111,0.157478 0.123232,-0.117182 c 0.06778,-0.06445 0.217969,-0.171731 0.333758,-0.238401 z m 3.904372,-0.135694 c -0.433324,-3.98319 -4.526846,-6.443706 -8.299693,-4.988743 -0.287171,0.110745 -0.313387,0.146703 -0.133228,0.182735 0.700096,0.140019 2.104336,1.347786 2.330467,2.004403 0.01088,0.03158 0.110054,-0.04141 0.293303,-0.215855 0.910243,-0.866517 1.338837,-0.893131 1.762864,-0.109468 0.11458,0.211762 0.107709,0.209377 0.262983,0.09127 0.572661,-0.435586 1.836568,-0.663606 1.938462,-0.349715 0.258251,0.795561 0.0063,2.170213 -0.536224,2.925191 -0.05204,0.07242 -0.05018,0.07296 0.321454,0.09343 0.705972,0.03889 1.332746,0.266179 1.844636,0.668923 0.272085,0.214071 0.271263,0.215226 0.214976,-0.302171 z m -4.266658,-0.635642 c 0.405923,-0.867486 0.271658,-2.050084 -0.308992,-2.721584 l -0.131627,-0.15222 -0.120223,0.06168 c -0.303819,0.155862 -0.662439,0.417496 -0.897196,0.654557 l -0.256455,0.258971 0.0892,0.222818 c 0.185391,0.4631 0.213362,0.627905 0.205808,1.212653 -0.0039,0.299577 0.0047,0.551911 0.01895,0.560743 0.129306,0.07991 0.282399,0.06002 0.336021,-0.04368 0.09065,-0.175291 0.171737,-0.142715 0.147803,0.05938 l -0.01976,0.166847 0.183201,0.109578 c 0.100761,0.06027 0.204664,0.135438 0.230896,0.167045 0.06547,0.07889 0.383587,-0.260173 0.52238,-0.556784 z m -2.710336,0.375618 c 0.16338,-0.108119 0.15944,-0.08906 0.05131,-0.248192 -0.169222,-0.249033 -0.09311,-0.326885 0.126023,-0.128908 0.07394,0.0668 0.156832,0.121453 0.184205,0.121453 0.0375,0 0.04491,-0.02994 0.03006,-0.121453 -0.02598,-0.1601 0.04131,-0.160428 0.11754,-5.74e-4 0.06249,0.131041 0.0451,0.128486 0.453075,0.06659 l 0.112778,-0.01711 0.0082,-0.267361 c 0.02472,-0.808651 -0.145618,-1.359984 -0.645381,-2.088894 -0.456566,-0.66591 -1.320125,-1.359717 -1.918987,-1.541769 -0.228721,-0.06953 -0.410444,1.195299 -0.269658,1.876887 0.191491,0.927067 0.778531,1.895188 1.402645,2.313182 0.226306,0.151565 0.180931,0.146855 0.348218,0.03615 z m 8.696306,3.423005 c 0.701045,-1.745943 0.73193,-3.291155 0.102657,-5.136097 -0.08137,-0.23857 -0.158518,-0.464995 -0.171438,-0.503166 -0.01292,-0.03817 0.04869,0.07895 0.136911,0.260258 0.817432,1.680007 0.810856,3.623529 -0.01825,5.394605 -0.221606,0.47338 -0.243473,0.46654 -0.04988,-0.0156 z m 0.453042,-4.136272 c -0.01108,-0.02768 -0.0193,-0.01946 -0.02097,0.02097 -0.0015,0.03658 0.0067,0.05708 0.01823,0.04554 0.01153,-0.01153 0.01276,-0.04146 0.0027,-0.06651 z m -0.0347,-0.138805 c -0.01108,-0.02768 -0.0193,-0.01946 -0.02097,0.02097 -0.0015,0.03658 0.0067,0.05708 0.01823,0.04555 0.01153,-0.01153 0.01276,-0.04146 0.0027,-0.06651 z m -0.942577,-1.201414 c -0.405173,-0.786507 -0.763729,-1.378868 -1.048868,-1.732805 -0.06526,-0.08101 -0.109621,-0.161911 -0.09858,-0.179783 0.01105,-0.01787 0.0018,-0.04379 -0.02055,-0.0576 -0.02537,-0.01568 -0.03133,-0.01007 -0.01587,0.01495 0.05764,0.09326 -0.01359,0.02747 -0.153858,-0.142118 -0.08288,-0.100199 -0.112568,-0.15095 -0.06598,-0.112778 0.04659,0.03817 -0.03709,-0.04571 -0.185961,-0.186411 -0.148867,-0.140696 -0.262891,-0.263588 -0.253386,-0.273093 0.0095,-0.0095 -0.04835,-0.0795 -0.128575,-0.155536 -0.08161,-0.07736 -0.03122,-0.04629 0.114402,0.07053 0.837709,0.672041 1.566642,1.684853 1.87412,2.603985 0.127583,0.38138 0.122999,0.422235 -0.0169,0.150657 z m -1.670131,-2.554464 c -0.01042,-0.02715 -0.04419,-0.05906 -0.07504,-0.0709 -0.04609,-0.01769 -0.04465,-0.0089 0.0081,0.04937 0.07559,0.08352 0.09291,0.08909 0.06698,0.02153 z m -10.56258,-0.31955 c 0.0013,-0.308451 1.461604,-1.23664 2.064585,-1.312302 0.165389,-0.02075 0.151591,-0.01063 -0.29496,0.216373 -0.623894,0.317158 -1.082898,0.605414 -1.656977,1.040584 -0.06203,0.04702 -0.11272,0.07192 -0.112648,0.05534 z"
         id="path1" /></g></g></svg>
